<?xml version="1.0" encoding="utf-8" standalone="no"?>
<!DOCTYPE svg PUBLIC "-//W3C//DTD SVG 1.1//EN"
  "http://www.w3.org/Graphics/SVG/1.1/DTD/svg11.dtd">
<svg xmlns:xlink="http://www.w3.org/1999/xlink" width="252pt" height="252pt" viewBox="0 0 252 252" xmlns="http://www.w3.org/2000/svg" version="1.1">
 <metadata>
  <rdf:RDF xmlns:dc="http://purl.org/dc/elements/1.1/" xmlns:cc="http://creativecommons.org/ns#" xmlns:rdf="http://www.w3.org/1999/02/22-rdf-syntax-ns#">
   <cc:Work>
    <dc:type rdf:resource="http://purl.org/dc/dcmitype/StillImage"/>
    <dc:date>2025-02-14T12:56:08.370957</dc:date>
    <dc:format>image/svg+xml</dc:format>
    <dc:creator>
     <cc:Agent>
      <dc:title>Matplotlib v3.7.0, https://matplotlib.org/</dc:title>
     </cc:Agent>
    </dc:creator>
   </cc:Work>
  </rdf:RDF>
 </metadata>
 <defs>
  <style type="text/css">*{stroke-linejoin: round; stroke-linecap: butt}</style>
 </defs>
 <g id="figure_1">
  <g id="patch_1">
   <path d="M 0 252 
L 252 252 
L 252 0 
L 0 0 
z
" style="fill: #ffffff"/>
  </g>
  <g id="patch_2">
   <path d="M 32.13 224.28 
L 226.17 224.28 
L 226.17 30.24 
L 32.13 30.24 
z
" style="fill: #ffffff"/>
  </g>
  <g id="pane3d_1">
   <g id="patch_3">
    <path d="M 131.772162 121.355089 
L 218.137165 164.303498 
L 222.080772 83.16096 
L 131.772162 44.018136 
" style="fill: #f2f2f2; opacity: 0.5; stroke: #f2f2f2; stroke-linejoin: miter"/>
   </g>
  </g>
  <g id="pane3d_2">
   <g id="patch_4">
    <path d="M 131.772162 121.355089 
L 45.40716 164.303498 
L 41.463552 83.16096 
L 131.772162 44.018136 
" style="fill: #e6e6e6; opacity: 0.5; stroke: #e6e6e6; stroke-linejoin: miter"/>
   </g>
  </g>
  <g id="pane3d_3">
   <g id="patch_5">
    <path d="M 131.772162 121.355089 
L 45.40716 164.303498 
L 131.772162 213.847519 
L 218.137165 164.303498 
" style="fill: #ececec; opacity: 0.5; stroke: #ececec; stroke-linejoin: miter"/>
   </g>
  </g>
  <g id="axis3d_1">
   <g id="line2d_1">
    <path d="M 218.137165 164.303498 
L 131.772162 213.847519 
" style="fill: none; stroke: #000000; stroke-width: 0.8; stroke-linecap: square"/>
   </g>
   <g id="text_1">
    <text style="font: 10px 'DejaVu Sans', 'Bitstream Vera Sans', 'Computer Modern Sans Serif', 'Lucida Grande', 'Verdana', 'Geneva', 'Lucid', 'Arial', 'Helvetica', 'Avant Garde', sans-serif; text-anchor: middle" x="186.469735" y="204.988928" transform="rotate(-0 186.469735 204.988928)">$\xi$</text>
   </g>
  </g>
  <g id="axis3d_2">
   <g id="line2d_2">
    <path d="M 45.40716 164.303498 
L 131.772162 213.847519 
" style="fill: none; stroke: #000000; stroke-width: 0.8; stroke-linecap: square"/>
   </g>
   <g id="text_2">
    <text style="font: 10px 'DejaVu Sans', 'Bitstream Vera Sans', 'Computer Modern Sans Serif', 'Lucida Grande', 'Verdana', 'Geneva', 'Lucid', 'Arial', 'Helvetica', 'Avant Garde', sans-serif; text-anchor: middle" x="77.07459" y="204.988928" transform="rotate(-0 77.07459 204.988928)">$\eta$</text>
   </g>
  </g>
  <g id="axis3d_3">
   <g id="line2d_3">
    <path d="M 45.40716 164.303498 
L 41.463552 83.16096 
" style="fill: none; stroke: #000000; stroke-width: 0.8; stroke-linecap: square"/>
   </g>
   <g id="Line3DCollection_1">
    <path d="M 45.331666 162.750158 
L 131.772162 119.870186 
L 218.212659 162.750158 
" style="fill: none; stroke: #b0b0b0; stroke-width: 0.8"/>
    <path d="M 44.415335 143.896006 
L 131.772162 101.860493 
L 219.128989 143.896006 
" style="fill: none; stroke: #b0b0b0; stroke-width: 0.8"/>
    <path d="M 43.479369 124.637838 
L 131.772162 83.4911 
L 220.064955 124.637838 
" style="fill: none; stroke: #b0b0b0; stroke-width: 0.8"/>
    <path d="M 42.52313 104.962525 
L 131.772162 64.751122 
L 221.021195 104.962525 
" style="fill: none; stroke: #b0b0b0; stroke-width: 0.8"/>
    <path d="M 41.54595 84.856365 
L 131.772162 45.629232 
L 221.998374 84.856365 
" style="fill: none; stroke: #b0b0b0; stroke-width: 0.8"/>
   </g>
   <g id="xtick_1">
    <g id="line2d_4">
     <path d="M 46.072122 162.382844 
L 43.848213 163.486044 
" style="fill: none; stroke: #000000; stroke-width: 0.8; stroke-linecap: square"/>
    </g>
    <g id="text_3">
     <text style="font: 10px 'DejaVu Sans', 'Bitstream Vera Sans', 'Computer Modern Sans Serif', 'Lucida Grande', 'Verdana', 'Geneva', 'Lucid', 'Arial', 'Helvetica', 'Avant Garde', sans-serif; text-anchor: middle" x="25.65937" y="170.348595" transform="rotate(-0 25.65937 170.348595)">0</text>
    </g>
   </g>
   <g id="xtick_2">
    <g id="line2d_5">
     <path d="M 45.164165 143.535675 
L 42.91508 144.617919 
" style="fill: none; stroke: #000000; stroke-width: 0.8; stroke-linecap: square"/>
    </g>
   </g>
   <g id="xtick_3">
    <g id="line2d_6">
     <path d="M 44.236763 124.284873 
L 41.961928 125.345005 
" style="fill: none; stroke: #000000; stroke-width: 0.8; stroke-linecap: square"/>
    </g>
   </g>
   <g id="xtick_4">
    <g id="line2d_7">
     <path d="M 43.289285 104.617331 
L 40.988106 105.654134 
" style="fill: none; stroke: #000000; stroke-width: 0.8; stroke-linecap: square"/>
    </g>
   </g>
   <g id="xtick_5">
    <g id="line2d_8">
     <path d="M 42.321071 84.51937 
L 39.992933 85.531562 
" style="fill: none; stroke: #000000; stroke-width: 0.8; stroke-linecap: square"/>
    </g>
    <g id="text_4">
     <text style="font: 10px 'DejaVu Sans', 'Bitstream Vera Sans', 'Computer Modern Sans Serif', 'Lucida Grande', 'Verdana', 'Geneva', 'Lucid', 'Arial', 'Helvetica', 'Avant Garde', sans-serif; text-anchor: middle" x="21.012094" y="92.454803" transform="rotate(-0 21.012094 92.454803)">1</text>
    </g>
   </g>
  </g>
  <g id="axes_1">
   <g id="line2d_9">
    <path d="M 114.466243 57.907975 
L 112.754824 77.669409 
L 111.175377 93.339465 
L 109.722918 105.627088 
L 108.394986 115.13158 
L 107.056635 123.091337 
L 105.840594 128.961313 
L 104.748546 133.165676 
L 103.783054 136.07015 
L 102.947197 137.988223 
L 102.102917 139.38081 
L 101.392381 140.140612 
L 100.675547 140.565437 
L 56.333183 162.750158 
L 56.333183 162.750158 
" clip-path="url(#pd5b93353a0)" style="fill: none; stroke: #a6761d; stroke-opacity: 0.2; stroke-width: 1.5; stroke-linecap: square"/>
   </g>
   <g id="line2d_10">
    <path d="M 115.159164 133.319206 
L 113.619535 120.519412 
L 112.231387 110.720464 
L 110.998933 103.431843 
L 109.770909 97.521222 
L 108.702358 93.505517 
L 107.792486 90.936752 
L 107.039471 89.418934 
L 106.440993 88.615387 
L 105.846411 88.178711 
L 105.40325 88.092702 
L 104.962639 88.214089 
L 104.524727 88.54308 
L 103.945304 89.30477 
L 103.371296 90.435413 
L 102.661922 92.366501 
L 101.823469 95.440095 
L 101.000007 99.33304 
L 99.924815 105.647398 
L 98.179987 115.434318 
L 96.557935 123.291755 
L 95.058954 129.521717 
L 93.68432 134.390235 
L 92.296625 138.51039 
L 91.03515 141.584223 
L 89.902814 143.815104 
L 88.759176 145.575888 
L 87.748507 146.731745 
L 86.874307 147.43679 
L 85.698984 148.058291 
L 56.333183 162.750158 
L 56.333183 162.750158 
" clip-path="url(#pd5b93353a0)" style="fill: none; stroke: #a6761d; stroke-opacity: 0.2; stroke-width: 1.5; stroke-linecap: square"/>
   </g>
   <g id="line2d_11">
    <path d="M 115.159164 133.319206 
L 114.315283 133.6104 
L 113.467479 133.641077 
L 112.615373 133.410543 
L 111.758581 132.917874 
L 110.896715 132.161916 
L 109.884262 130.945328 
L 108.863723 129.365853 
L 107.68665 127.112427 
L 106.347546 123.999302 
L 104.991246 120.265637 
L 103.462222 115.37692 
L 101.75099 109.080819 
L 97.943751 94.48154 
L 96.842905 91.561663 
L 95.906329 89.65075 
L 95.131466 88.479499 
L 94.362254 87.693682 
L 93.751292 87.34383 
L 93.144525 87.242622 
L 92.542207 87.39061 
L 91.944588 87.788142 
L 91.351916 88.435367 
L 90.618401 89.59543 
L 89.893461 91.144994 
L 89.035494 93.517119 
L 88.051987 96.987884 
L 87.088391 101.210212 
L 86.012946 106.945825 
L 82.577541 126.633869 
L 81.097181 133.434649 
L 79.596592 139.304708 
L 78.213047 143.844482 
L 76.950657 147.288292 
L 75.670682 150.128445 
L 74.51713 152.148804 
L 73.494819 153.528511 
L 72.459754 154.546482 
L 71.56191 155.131145 
L 56.333183 162.750158 
L 56.333183 162.750158 
" clip-path="url(#pd5b93353a0)" style="fill: none; stroke: #a6761d; stroke-opacity: 0.2; stroke-width: 1.5; stroke-linecap: square"/>
   </g>
   <g id="line2d_12">
    <path d="M 115.159164 133.319206 
L 100.242786 140.689935 
L 99.373208 140.771256 
L 98.497218 140.589526 
L 97.614411 140.143845 
L 96.724376 139.433078 
L 95.676303 138.266964 
L 94.617134 136.735559 
L 93.392165 134.534139 
L 92.150704 131.846273 
L 90.732952 128.233286 
L 89.129517 123.475377 
L 87.494145 117.919493 
L 85.655365 110.864657 
L 84.136684 105.079613 
L 82.968619 101.40291 
L 81.813951 98.466556 
L 80.836072 96.546324 
L 80.030254 95.370771 
L 79.233278 94.583849 
L 78.602426 94.235437 
L 77.977851 94.137753 
L 77.359821 94.291356 
L 76.748599 94.696601 
L 76.144443 95.353637 
L 75.399571 96.528909 
L 74.666615 98.096942 
L 73.803455 100.495497 
L 72.820001 104.002898 
L 71.863039 108.267981 
L 70.803209 114.059731 
L 67.561021 133.265115 
L 66.096135 140.218705 
L 64.60324 146.232576 
L 63.21996 150.895741 
L 61.95233 154.444934 
L 60.661916 157.385345 
L 59.494702 159.49069 
L 58.457035 160.941678 
L 57.403421 162.028137 
L 56.487118 162.669333 
L 56.333183 162.750158 
L 56.333183 162.750158 
" clip-path="url(#pd5b93353a0)" style="fill: none; stroke: #a6761d; stroke-width: 1.5; stroke-linecap: square"/>
   </g>
   <g id="line2d_13">
    <path d="M 115.159164 133.319206 
L 85.696623 147.966381 
L 84.803765 148.055204 
L 83.902221 147.878981 
L 82.991561 147.4368 
L 82.071349 146.727507 
L 80.985094 145.560519 
L 79.884493 144.025402 
L 78.608127 141.816195 
L 77.310869 139.116667 
L 75.824969 135.485782 
L 74.13896 130.70183 
L 72.413582 125.113125 
L 70.466914 118.013928 
L 69.218959 113.523971 
L 68.173362 110.548806 
L 67.320568 108.702826 
L 66.485599 107.437893 
L 65.831052 106.846911 
L 65.348264 106.650226 
L 64.872637 106.665377 
L 64.404348 106.892662 
L 63.943566 107.33223 
L 63.341154 108.248526 
L 62.752759 109.541805 
L 62.037525 111.687175 
L 61.20983 115.033432 
L 60.416497 119.215155 
L 59.535649 125.137529 
L 58.589551 133.259587 
L 57.709692 142.79319 
L 56.800691 155.155816 
L 56.333183 162.750158 
L 56.333183 162.750158 
" clip-path="url(#pd5b93353a0)" style="fill: none; stroke: #a6761d; stroke-opacity: 0.2; stroke-width: 1.5; stroke-linecap: square"/>
   </g>
   <g id="line2d_14">
    <path d="M 115.159164 133.319206 
L 70.955649 155.313903 
L 70.340575 155.259635 
L 69.716422 154.967838 
L 69.082921 154.437821 
L 68.277471 153.438936 
L 67.45641 152.064279 
L 66.4497 149.914917 
L 65.2443 146.711184 
L 64.003915 142.747643 
L 62.541063 137.271287 
L 61.027027 130.763902 
L 59.258513 122.178251 
L 57.206623 111.016996 
L 55.056026 98.081618 
L 53.029286 84.856365 
L 53.029286 84.856365 
" clip-path="url(#pd5b93353a0)" style="fill: none; stroke: #a6761d; stroke-opacity: 0.2; stroke-width: 1.5; stroke-linecap: square"/>
   </g>
   <g id="line2d_15">
    <path d="M 149.078082 57.907975 
L 149.648623 59.727256 
L 150.218914 61.529581 
L 150.78897 63.315012 
L 151.358806 65.083612 
L 151.928435 66.835441 
L 152.497873 68.570558 
L 153.067133 70.289023 
L 153.636231 71.990894 
L 154.20518 73.676227 
L 154.773995 75.34508 
L 155.34269 76.997507 
L 155.911279 78.633563 
L 156.479777 80.253301 
L 157.048197 81.856775 
L 157.616555 83.444036 
L 158.184864 85.015134 
L 158.753138 86.570121 
L 159.321392 88.109046 
L 159.889639 89.631956 
L 160.457895 91.138901 
L 161.026172 92.629925 
L 161.594486 94.105077 
L 162.16285 95.564399 
L 162.731278 97.007938 
L 163.299785 98.435736 
L 163.868385 99.847836 
L 164.437091 101.24428 
L 165.005918 102.625109 
L 165.57488 103.990364 
L 166.143991 105.340083 
L 166.713265 106.674307 
L 167.282716 107.993071 
L 167.852358 109.296415 
L 168.422206 110.584373 
L 168.992273 111.856982 
L 169.562574 113.114277 
L 170.133122 114.356291 
L 170.703932 115.583058 
L 171.275018 116.79461 
L 171.846395 117.990979 
L 172.418075 119.172196 
L 172.990075 120.338292 
L 173.562406 121.489295 
L 174.135085 122.625235 
L 174.708125 123.74614 
L 175.28154 124.852036 
L 175.855345 125.94295 
L 176.429554 127.018908 
L 177.00418 128.079936 
L 177.57924 129.126056 
L 178.154746 130.157294 
L 178.730714 131.173671 
L 179.307157 132.17521 
L 179.884091 133.161932 
L 180.461529 134.133858 
L 181.039486 135.091007 
L 181.617977 136.033399 
L 182.197016 136.961052 
L 182.776618 137.873984 
L 183.356797 138.772212 
L 183.937568 139.655752 
L 184.518946 140.52462 
L 185.100946 141.378831 
L 185.683582 142.218398 
L 186.266869 143.043335 
L 186.850822 143.853654 
L 187.435456 144.649369 
L 188.020785 145.430489 
L 188.606826 146.197026 
L 189.193593 146.948989 
L 189.7811 147.686387 
L 190.369364 148.409228 
L 190.958399 149.117521 
L 191.548221 149.811273 
L 192.138845 150.490488 
L 192.730286 151.155174 
L 193.32256 151.805334 
L 193.915682 152.440973 
L 194.509668 153.062094 
L 195.104533 153.668699 
L 195.700294 154.260791 
L 196.296965 154.838371 
L 196.894562 155.401439 
L 197.493102 155.949994 
L 198.092601 156.484037 
L 198.693074 157.003564 
L 199.294537 157.508574 
L 199.897007 157.999064 
L 200.500499 158.475028 
L 201.105031 158.936464 
L 201.710618 159.383365 
L 202.317277 159.815725 
L 202.925025 160.233538 
L 203.533877 160.636795 
L 204.143852 161.025489 
L 204.754965 161.39961 
L 205.367233 161.759148 
L 205.980674 162.104093 
L 206.595304 162.434434 
L 207.211141 162.750158 
" clip-path="url(#pd5b93353a0)" style="fill: none; stroke: #a6761d; stroke-width: 1.5; stroke-linecap: square"/>
   </g>
   <g id="line2d_16">
    <path d="M 148.38516 133.319206 
L 148.960412 132.165258 
L 149.536821 131.037485 
L 150.114363 129.936037 
L 150.693014 128.861064 
L 151.27275 127.812714 
L 151.853548 126.791134 
L 152.435382 125.796468 
L 153.018229 124.828858 
L 153.602063 123.888444 
L 154.186859 122.975364 
L 154.772592 122.089756 
L 155.359238 121.231753 
L 155.946769 120.401488 
L 156.53516 119.59909 
L 157.124386 118.824687 
L 157.714419 118.078405 
L 158.305235 117.360367 
L 158.896805 116.670695 
L 159.489103 116.009507 
L 160.082103 115.37692 
L 160.675777 114.773048 
L 161.270097 114.198002 
L 161.865037 113.651893 
L 162.460569 113.134826 
L 163.056665 112.646907 
L 163.653297 112.188237 
L 164.250436 111.758915 
L 164.848056 111.359039 
L 165.446127 110.988703 
L 166.04462 110.647998 
L 166.643508 110.337014 
L 167.242761 110.055836 
L 167.842351 109.804548 
L 168.442248 109.583232 
L 169.042423 109.391965 
L 169.642847 109.230822 
L 170.243491 109.099878 
L 170.844325 108.9992 
L 171.44532 108.928857 
L 172.046445 108.888912 
L 172.647671 108.879427 
L 173.248969 108.90046 
L 173.850308 108.952067 
L 174.451658 109.034299 
L 175.05299 109.147208 
L 175.654272 109.290839 
L 176.255476 109.465236 
L 176.856569 109.670441 
L 177.457523 109.906489 
L 178.058307 110.173418 
L 178.65889 110.471257 
L 179.259242 110.800035 
L 179.859333 111.159778 
L 180.459131 111.550509 
L 181.058607 111.972247 
L 181.65773 112.425009 
L 182.256469 112.908806 
L 182.854793 113.42365 
L 183.452673 113.969548 
L 184.050077 114.546503 
L 184.646975 115.154516 
L 185.243337 115.793585 
L 185.839131 116.463704 
L 186.434327 117.164864 
L 187.028896 117.897054 
L 187.622805 118.660259 
L 188.216026 119.454461 
L 188.808527 120.279638 
L 189.400278 121.135766 
L 189.99125 122.022817 
L 190.581411 122.940762 
L 191.170731 123.889565 
L 191.759181 124.86919 
L 192.346731 125.879598 
L 192.93335 126.920744 
L 193.519009 127.992582 
L 194.103678 129.095064 
L 194.687327 130.228135 
L 195.269927 131.391742 
L 195.851449 132.585825 
L 196.431862 133.810321 
L 197.011138 135.065168 
L 197.589248 136.350295 
L 198.166163 137.665633 
L 198.741853 139.011107 
L 199.316291 140.386641 
L 199.889447 141.792154 
L 200.461293 143.227563 
L 201.031801 144.692782 
L 201.600942 146.187723 
L 202.16869 147.712293 
L 202.735015 149.266398 
L 203.29989 150.84994 
L 203.863289 152.462818 
L 204.425182 154.104929 
L 204.985545 155.776166 
L 205.544348 157.476421 
L 206.101566 159.205582 
L 206.657173 160.963533 
L 207.211141 162.750158 
" clip-path="url(#pd5b93353a0)" style="fill: none; stroke: #a6761d; stroke-opacity: 0.2; stroke-width: 1.5; stroke-linecap: square"/>
   </g>
   <g id="line2d_17">
    <path d="M 148.38516 133.319206 
L 148.946848 133.592945 
L 149.509197 133.85245 
L 150.072221 134.097707 
L 150.635935 134.328701 
L 151.200354 134.545416 
L 151.765491 134.747837 
L 152.331362 134.935947 
L 152.897982 135.109728 
L 153.465365 135.269163 
L 154.033526 135.414233 
L 154.60248 135.544917 
L 155.172243 135.661197 
L 155.742828 135.763049 
L 156.314253 135.850454 
L 156.886531 135.923388 
L 157.459679 135.981827 
L 158.033711 136.025748 
L 158.608643 136.055127 
L 159.184491 136.069936 
L 159.76127 136.07015 
L 160.338996 136.055742 
L 160.917685 136.026684 
L 161.497353 135.982947 
L 162.078016 135.924501 
L 162.65969 135.851317 
L 163.242391 135.763362 
L 163.826136 135.660606 
L 164.41094 135.543016 
L 164.996821 135.410557 
L 165.583794 135.263196 
L 166.171877 135.100898 
L 166.761087 134.923626 
L 167.351439 134.731343 
L 167.942952 134.524012 
L 168.535642 134.301595 
L 169.129527 134.064052 
L 169.724623 133.811342 
L 170.320949 133.543425 
L 170.918521 133.260259 
L 171.517358 132.9618 
L 172.117477 132.648005 
L 172.718896 132.31883 
L 173.321633 131.974228 
L 173.925707 131.614153 
L 174.531134 131.238558 
L 175.137935 130.847395 
L 175.746127 130.440614 
L 176.35573 130.018165 
L 176.966761 129.579996 
L 177.57924 129.126056 
L 178.193186 128.656292 
L 178.808618 128.17065 
L 179.425555 127.669074 
L 180.044017 127.151509 
L 180.664024 126.617897 
L 181.285595 126.06818 
L 181.908751 125.5023 
L 182.53351 124.920196 
L 183.159895 124.321806 
L 183.787924 123.70707 
L 184.417619 123.075924 
L 185.049001 122.428302 
L 185.68209 121.764141 
L 186.316907 121.083372 
L 186.953473 120.38593 
L 187.591811 119.671744 
L 188.231941 118.940746 
L 188.873886 118.192863 
L 189.517667 117.428024 
L 190.163307 116.646157 
L 190.810827 115.847185 
L 191.460251 115.031033 
L 192.111601 114.197625 
L 192.7649 113.346883 
L 193.420172 112.478726 
L 194.077438 111.593075 
L 194.736724 110.689848 
L 195.398053 109.768961 
L 196.061448 108.830331 
L 196.726934 107.873871 
L 197.394535 106.899494 
L 198.064277 105.907113 
L 198.736183 104.896637 
L 199.410279 103.867976 
L 200.08659 102.821037 
L 200.765142 101.755727 
L 201.44596 100.671949 
L 202.12907 99.569608 
L 202.8145 98.448605 
L 203.502275 97.308841 
L 204.192421 96.150215 
L 204.884967 94.972625 
L 205.57994 93.775966 
L 206.277366 92.560132 
L 206.977274 91.325018 
L 207.679693 90.070513 
L 208.384649 88.796508 
L 209.092173 87.502891 
L 209.802293 86.189549 
L 210.515038 84.856365 
" clip-path="url(#pd5b93353a0)" style="fill: none; stroke: #a6761d; stroke-opacity: 0.2; stroke-width: 1.5; stroke-linecap: square"/>
   </g>
   <g id="Poly3DCollection_1">
    <path d="M 131.772162 141.861968 
L 132.333891 142.150821 
L 132.896141 142.439942 
L 133.458913 142.729332 
L 134.022208 143.01899 
L 134.586026 143.308917 
L 135.150368 143.599115 
L 135.715236 143.889582 
L 136.280629 144.180319 
L 136.846548 144.471327 
L 137.412995 144.762606 
L 137.97997 145.054157 
L 138.547473 145.345979 
L 139.115506 145.638074 
L 139.684068 145.930441 
L 140.253162 146.223081 
L 140.822787 146.515995 
L 141.392945 146.809182 
L 141.963635 147.102643 
L 142.53486 147.396379 
L 143.106619 147.69039 
L 143.678913 147.984676 
L 144.251743 148.279238 
L 144.825111 148.574076 
L 145.399016 148.86919 
L 145.973459 149.164581 
L 146.548441 149.46025 
L 147.123963 149.756196 
L 147.700026 150.05242 
L 148.276631 150.348922 
L 148.853777 150.645703 
L 149.431466 150.942764 
L 150.009699 151.240103 
L 150.588477 151.537723 
L 151.1678 151.835624 
L 151.747668 152.133805 
L 152.328084 152.432267 
L 152.909047 152.731011 
L 153.490558 153.030036 
L 154.072619 153.329344 
L 154.655229 153.628935 
L 155.23839 153.928809 
L 155.822102 154.228967 
L 156.406367 154.529408 
L 156.991185 154.830134 
L 157.576556 155.131145 
L 158.162482 155.43244 
L 158.748963 155.734022 
L 159.336001 156.035889 
L 159.923595 156.338043 
L 160.511748 156.640483 
L 161.100458 156.943211 
L 161.689728 157.246227 
L 162.279559 157.54953 
L 162.86995 157.853122 
L 163.460902 158.157003 
L 164.052418 158.461173 
L 164.644496 158.765632 
L 165.237139 159.070382 
L 165.830347 159.375422 
L 166.424121 159.680753 
L 167.018461 159.986376 
L 167.613368 160.29229 
L 168.208844 160.598496 
L 168.804888 160.904996 
L 169.401503 161.211788 
L 169.998688 161.518873 
L 170.596444 161.826252 
L 171.194773 162.133926 
L 171.793675 162.441894 
L 172.393151 162.750158 
L 172.993201 163.058717 
L 173.593827 163.367571 
L 174.19503 163.676723 
L 174.79681 163.986171 
L 175.399167 164.295916 
L 176.002104 164.605959 
L 176.605621 164.916301 
L 177.209717 165.22694 
L 177.814396 165.537879 
L 178.419656 165.849117 
L 179.0255 166.160655 
L 179.631928 166.472493 
L 180.23894 166.784632 
L 180.846538 167.097072 
L 181.454723 167.409814 
L 182.063495 167.722857 
L 182.672855 168.036203 
L 183.282803 168.349852 
L 183.893342 168.663804 
L 184.504472 168.978061 
L 185.116193 169.292621 
L 185.728507 169.607486 
L 186.341414 169.922656 
L 186.954915 170.238131 
L 187.569011 170.553913 
L 188.183703 170.870001 
L 188.798992 171.186395 
L 189.414878 171.503097 
L 190.031363 171.820107 
L 190.648448 172.137425 
L 190.508395 172.216803 
L 190.368309 172.2962 
L 190.228188 172.375617 
L 190.088034 172.455052 
L 189.947845 172.534507 
L 189.807622 172.613981 
L 189.667365 172.693475 
L 189.527074 172.772988 
L 189.386749 172.85252 
L 189.24639 172.932072 
L 189.105997 173.011643 
L 188.965569 173.091234 
L 188.825107 173.170843 
L 188.684611 173.250472 
L 188.544081 173.330121 
L 188.403517 173.409789 
L 188.262918 173.489476 
L 188.122285 173.569183 
L 187.981618 173.648909 
L 187.840916 173.728655 
L 187.700181 173.80842 
L 187.559411 173.888204 
L 187.418606 173.968008 
L 187.277768 174.047832 
L 187.136895 174.127675 
L 186.995987 174.207537 
L 186.855046 174.287419 
L 186.71407 174.36732 
L 186.573059 174.447241 
L 186.432014 174.527181 
L 186.290935 174.607141 
L 186.149821 174.68712 
L 186.008673 174.767119 
L 185.86749 174.847137 
L 185.726273 174.927175 
L 185.585022 175.007232 
L 185.443736 175.087309 
L 185.302415 175.167406 
L 185.16106 175.247522 
L 185.019671 175.327658 
L 184.878246 175.407813 
L 184.736788 175.487988 
L 184.595295 175.568182 
L 184.453767 175.648396 
L 184.312204 175.72863 
L 184.170607 175.808883 
L 184.028976 175.889156 
L 183.887309 175.969448 
L 183.745609 176.04976 
L 183.603873 176.130092 
L 183.462103 176.210443 
L 183.320298 176.290814 
L 183.178458 176.371205 
L 183.036584 176.451615 
L 182.894675 176.532045 
L 182.752731 176.612495 
L 182.610753 176.692964 
L 182.46874 176.773453 
L 182.326692 176.853962 
L 182.184609 176.934491 
L 182.042491 177.015039 
L 181.900339 177.095607 
L 181.758152 177.176194 
L 181.61593 177.256802 
L 181.473673 177.337429 
L 181.331381 177.418076 
L 181.189055 177.498743 
L 181.046693 177.579429 
L 180.904297 177.660135 
L 180.761866 177.740861 
L 180.619399 177.821607 
L 180.476898 177.902373 
L 180.334362 177.983158 
L 180.191791 178.063964 
L 180.049185 178.144789 
L 179.906544 178.225634 
L 179.763868 178.306498 
L 179.621157 178.387383 
L 179.478411 178.468287 
L 179.33563 178.549212 
L 179.192814 178.630156 
L 179.049963 178.71112 
L 178.907076 178.792104 
L 178.764155 178.873107 
L 178.621199 178.954131 
L 178.478207 179.035175 
L 178.33518 179.116238 
L 178.192119 179.197322 
L 178.049022 179.278425 
L 177.905889 179.359548 
L 177.762722 179.440691 
L 177.61952 179.521855 
L 177.476282 179.603038 
L 177.333009 179.684241 
L 177.189701 179.765464 
L 177.046357 179.846707 
L 176.902979 179.92797 
L 176.759565 180.009253 
L 176.616116 180.090556 
L 176.472631 180.171879 
L 175.854931 179.846707 
L 175.237839 179.521855 
L 174.621353 179.197322 
L 174.005472 178.873107 
L 173.390197 178.549212 
L 172.775525 178.225634 
L 172.161455 177.902373 
L 171.547988 177.579429 
L 170.935122 177.256802 
L 170.322857 176.934491 
L 169.71119 176.612495 
L 169.100123 176.290814 
L 168.489652 175.969448 
L 167.879779 175.648396 
L 167.270501 175.327658 
L 166.661818 175.007232 
L 166.05373 174.68712 
L 165.446234 174.36732 
L 164.839331 174.047832 
L 164.23302 173.728655 
L 163.627299 173.409789 
L 163.022168 173.091234 
L 162.417626 172.772988 
L 161.813672 172.455052 
L 161.210305 172.137425 
L 160.607524 171.820107 
L 160.005329 171.503097 
L 159.403719 171.186395 
L 158.802692 170.870001 
L 158.202248 170.553913 
L 157.602387 170.238131 
L 157.003106 169.922656 
L 156.404406 169.607486 
L 155.806286 169.292621 
L 155.208744 168.978061 
L 154.61178 168.663804 
L 154.015394 168.349852 
L 153.419583 168.036203 
L 152.824348 167.722857 
L 152.229687 167.409814 
L 151.6356 167.097072 
L 151.042086 166.784632 
L 150.449144 166.472493 
L 149.856773 166.160655 
L 149.264973 165.849117 
L 148.673742 165.537879 
L 148.083079 165.22694 
L 147.492985 164.916301 
L 146.903458 164.605959 
L 146.314497 164.295916 
L 145.726102 163.986171 
L 145.138271 163.676723 
L 144.551004 163.367571 
L 143.9643 163.058717 
L 143.378159 162.750158 
L 142.792579 162.441894 
L 142.207559 162.133926 
L 141.623099 161.826252 
L 141.039199 161.518873 
L 140.455856 161.211788 
L 139.873071 160.904996 
L 139.290842 160.598496 
L 138.70917 160.29229 
L 138.128052 159.986376 
L 137.547489 159.680753 
L 136.967479 159.375422 
L 136.388021 159.070382 
L 135.809115 158.765632 
L 135.230761 158.461173 
L 134.652957 158.157003 
L 134.075702 157.853122 
L 133.498996 157.54953 
L 132.922838 157.246227 
L 132.347227 156.943211 
L 131.772162 156.640483 
L 131.197643 156.338043 
L 130.623669 156.035889 
L 130.050239 155.734022 
L 129.477352 155.43244 
L 128.905007 155.131145 
L 128.333205 154.830134 
L 127.761943 154.529408 
L 127.191221 154.228967 
L 126.621039 153.928809 
L 126.051395 153.628935 
L 125.48229 153.329344 
L 124.913721 153.030036 
L 124.345689 152.731011 
L 123.778193 152.432267 
L 123.211231 152.133805 
L 122.644803 151.835624 
L 122.078909 151.537723 
L 121.513547 151.240103 
L 120.948718 150.942764 
L 120.384419 150.645703 
L 119.820651 150.348922 
L 119.257412 150.05242 
L 118.694702 149.756196 
L 118.13252 149.46025 
L 117.570865 149.164581 
L 117.714527 149.090708 
L 117.858154 149.016851 
L 118.001748 148.943012 
L 118.145309 148.86919 
L 118.288835 148.795386 
L 118.432328 148.721599 
L 118.575788 148.647829 
L 118.719214 148.574076 
L 118.862606 148.500341 
L 119.005964 148.426623 
L 119.149289 148.352922 
L 119.292581 148.279238 
L 119.435839 148.205572 
L 119.579063 148.131923 
L 119.722254 148.058291 
L 119.865411 147.984676 
L 120.008535 147.911079 
L 120.151625 147.837499 
L 120.294682 147.763936 
L 120.437706 147.69039 
L 120.580696 147.616862 
L 120.723652 147.54335 
L 120.866575 147.469856 
L 121.009465 147.396379 
L 121.152321 147.32292 
L 121.295144 147.249477 
L 121.437933 147.176052 
L 121.580689 147.102643 
L 121.723412 147.029252 
L 121.866101 146.955878 
L 122.008757 146.882522 
L 122.15138 146.809182 
L 122.293969 146.73586 
L 122.436525 146.662554 
L 122.579048 146.589266 
L 122.721537 146.515995 
L 122.863993 146.442741 
L 123.006416 146.369504 
L 123.148806 146.296284 
L 123.291162 146.223081 
L 123.433486 146.149895 
L 123.575776 146.076727 
L 123.718032 146.003575 
L 123.860256 145.930441 
L 124.002446 145.857324 
L 124.144604 145.784223 
L 124.286728 145.71114 
L 124.428819 145.638074 
L 124.570877 145.565025 
L 124.712901 145.491992 
L 124.854893 145.418977 
L 124.996851 145.345979 
L 125.138777 145.272998 
L 125.280669 145.200034 
L 125.422528 145.127087 
L 125.564355 145.054157 
L 125.706148 144.981244 
L 125.847908 144.908347 
L 125.989635 144.835468 
L 126.131329 144.762606 
L 126.27299 144.689761 
L 126.414618 144.616933 
L 126.556214 144.544121 
L 126.697776 144.471327 
L 126.839305 144.39855 
L 126.980801 144.325789 
L 127.122265 144.253046 
L 127.263695 144.180319 
L 127.405093 144.107609 
L 127.546458 144.034916 
L 127.68779 143.962241 
L 127.829089 143.889582 
L 127.970355 143.816939 
L 128.111588 143.744314 
L 128.252788 143.671706 
L 128.393956 143.599115 
L 128.535091 143.52654 
L 128.676193 143.453982 
L 128.817262 143.381441 
L 128.958298 143.308917 
L 129.099302 143.23641 
L 129.240273 143.16392 
L 129.381211 143.091447 
L 129.522117 143.01899 
L 129.662989 142.94655 
L 129.80383 142.874127 
L 129.944637 142.801721 
L 130.085412 142.729332 
L 130.226153 142.656959 
L 130.366863 142.584603 
L 130.507539 142.512264 
L 130.648184 142.439942 
L 130.788795 142.367637 
L 130.929374 142.295348 
L 131.06992 142.223076 
L 131.210433 142.150821 
L 131.350915 142.078583 
L 131.491363 142.006361 
L 131.631779 141.934156 
z
" clip-path="url(#pd5b93353a0)" style="fill: #7570b3; fill-opacity: 0.5; stroke: #d95f02"/>
    <path d="M 117.570865 149.164581 
L 118.13252 149.46025 
L 118.694702 149.756196 
L 119.257412 150.05242 
L 119.820651 150.348922 
L 120.384419 150.645703 
L 120.948718 150.942764 
L 121.513547 151.240103 
L 122.078909 151.537723 
L 122.644803 151.835624 
L 123.211231 152.133805 
L 123.778193 152.432267 
L 124.345689 152.731011 
L 124.913721 153.030036 
L 125.48229 153.329344 
L 126.051395 153.628935 
L 126.621039 153.928809 
L 127.191221 154.228967 
L 127.761943 154.529408 
L 128.333205 154.830134 
L 128.905007 155.131145 
L 129.477352 155.43244 
L 130.050239 155.734022 
L 130.623669 156.035889 
L 131.197643 156.338043 
L 131.772162 156.640483 
L 132.347227 156.943211 
L 132.922838 157.246227 
L 133.498996 157.54953 
L 134.075702 157.853122 
L 134.652957 158.157003 
L 135.230761 158.461173 
L 135.809115 158.765632 
L 136.388021 159.070382 
L 136.967479 159.375422 
L 137.547489 159.680753 
L 138.128052 159.986376 
L 138.70917 160.29229 
L 139.290842 160.598496 
L 139.873071 160.904996 
L 140.455856 161.211788 
L 141.039199 161.518873 
L 141.623099 161.826252 
L 142.207559 162.133926 
L 142.792579 162.441894 
L 143.378159 162.750158 
L 143.9643 163.058717 
L 144.551004 163.367571 
L 145.138271 163.676723 
L 145.726102 163.986171 
L 146.314497 164.295916 
L 146.903458 164.605959 
L 147.492985 164.916301 
L 148.083079 165.22694 
L 148.673742 165.537879 
L 149.264973 165.849117 
L 149.856773 166.160655 
L 150.449144 166.472493 
L 151.042086 166.784632 
L 151.6356 167.097072 
L 152.229687 167.409814 
L 152.824348 167.722857 
L 153.419583 168.036203 
L 154.015394 168.349852 
L 154.61178 168.663804 
L 155.208744 168.978061 
L 155.806286 169.292621 
L 156.404406 169.607486 
L 157.003106 169.922656 
L 157.602387 170.238131 
L 158.202248 170.553913 
L 158.802692 170.870001 
L 159.403719 171.186395 
L 160.005329 171.503097 
L 160.607524 171.820107 
L 161.210305 172.137425 
L 161.813672 172.455052 
L 162.417626 172.772988 
L 163.022168 173.091234 
L 163.627299 173.409789 
L 164.23302 173.728655 
L 164.839331 174.047832 
L 165.446234 174.36732 
L 166.05373 174.68712 
L 166.661818 175.007232 
L 167.270501 175.327658 
L 167.879779 175.648396 
L 168.489652 175.969448 
L 169.100123 176.290814 
L 169.71119 176.612495 
L 170.322857 176.934491 
L 170.935122 177.256802 
L 171.547988 177.579429 
L 172.161455 177.902373 
L 172.775525 178.225634 
L 173.390197 178.549212 
L 174.005472 178.873107 
L 174.621353 179.197322 
L 175.237839 179.521855 
L 175.854931 179.846707 
L 176.472631 180.171879 
L 176.329111 180.253222 
L 176.185556 180.334585 
L 176.041966 180.415968 
L 175.89834 180.497371 
L 175.754678 180.578794 
L 175.610982 180.660237 
L 175.46725 180.7417 
L 175.323483 180.823184 
L 175.17968 180.904687 
L 175.035842 180.986211 
L 174.891968 181.067754 
L 174.748059 181.149318 
L 174.604114 181.230901 
L 174.460134 181.312505 
L 174.316119 181.394129 
L 174.172068 181.475773 
L 174.027981 181.557437 
L 173.883859 181.639122 
L 173.739701 181.720826 
L 173.595508 181.802551 
L 173.451279 181.884296 
L 173.307015 181.966061 
L 173.162715 182.047846 
L 173.018379 182.129651 
L 172.874008 182.211477 
L 172.729601 182.293322 
L 172.585159 182.375188 
L 172.440681 182.457074 
L 172.296167 182.538981 
L 172.151618 182.620907 
L 172.007032 182.702854 
L 171.862411 182.784821 
L 171.717755 182.866809 
L 171.573062 182.948816 
L 171.428334 183.030844 
L 171.28357 183.112892 
L 171.138771 183.194961 
L 170.993935 183.277049 
L 170.849064 183.359158 
L 170.704157 183.441287 
L 170.559214 183.523437 
L 170.414235 183.605607 
L 170.26922 183.687797 
L 170.12417 183.770008 
L 169.979083 183.852239 
L 169.833961 183.93449 
L 169.688803 184.016762 
L 169.543608 184.099054 
L 169.398378 184.181366 
L 169.253112 184.263699 
L 169.10781 184.346052 
L 168.962472 184.428425 
L 168.817098 184.510819 
L 168.671688 184.593233 
L 168.526242 184.675668 
L 168.38076 184.758123 
L 168.235242 184.840599 
L 168.089687 184.923095 
L 167.944097 185.005611 
L 167.798471 185.088148 
L 167.652808 185.170706 
L 167.50711 185.253284 
L 167.361375 185.335882 
L 167.215604 185.418501 
L 167.069797 185.50114 
L 166.923954 185.5838 
L 166.778074 185.66648 
L 166.632159 185.749181 
L 166.486207 185.831902 
L 166.340219 185.914644 
L 166.194195 185.997407 
L 166.048134 186.08019 
L 165.902037 186.162993 
L 165.755904 186.245817 
L 165.609735 186.328662 
L 165.463529 186.411527 
L 165.317287 186.494413 
L 165.171009 186.57732 
L 165.024694 186.660247 
L 164.878343 186.743194 
L 164.731956 186.826162 
L 164.585532 186.909151 
L 164.439072 186.992161 
L 164.292576 187.075191 
L 164.146043 187.158242 
L 163.999473 187.241313 
L 163.852867 187.324405 
L 163.706225 187.407518 
L 163.559546 187.490651 
L 163.412831 187.573806 
L 163.266079 187.65698 
L 163.11929 187.740176 
L 162.972465 187.823392 
L 162.825604 187.906629 
L 162.678706 187.989887 
L 162.531771 188.073165 
L 162.3848 188.156464 
L 162.237792 188.239784 
L 162.090748 188.323125 
L 161.943667 188.406486 
L 161.325577 188.069342 
L 160.708225 187.724889 
L 160.091603 187.373133 
L 159.475702 187.01408 
L 158.860511 186.647735 
L 158.246024 186.274106 
L 157.632229 185.893196 
L 157.019119 185.505011 
L 156.406684 185.109557 
L 155.794916 184.706838 
L 155.183805 184.296859 
L 154.573343 183.879624 
L 153.963521 183.455137 
L 153.35433 183.023404 
L 152.745762 182.584426 
L 152.137808 182.138209 
L 151.530458 181.684756 
L 150.923705 181.22407 
L 150.317539 180.756153 
L 149.711953 180.28101 
L 149.106938 179.798642 
L 148.502484 179.309052 
L 147.898584 178.812243 
L 147.295229 178.308217 
L 146.692411 177.796975 
L 146.090121 177.27852 
L 145.488351 176.752852 
L 144.887092 176.219974 
L 144.286337 175.679886 
L 143.686076 175.13259 
L 143.086302 174.578087 
L 142.487006 174.016376 
L 141.88818 173.447458 
L 141.289815 172.871335 
L 140.691905 172.288004 
L 140.094439 171.697468 
L 139.497411 171.099725 
L 138.900812 170.494775 
L 138.304634 169.882617 
L 137.708869 169.26325 
L 137.113508 168.636673 
L 136.518545 168.002886 
L 135.92397 167.361886 
L 135.329776 166.713672 
L 134.735955 166.058242 
L 134.142498 165.395595 
L 133.549399 164.725727 
L 132.956648 164.048638 
L 132.364239 163.364324 
L 131.772162 162.672782 
L 131.180411 161.974011 
L 130.588977 161.268006 
L 129.997853 160.554764 
L 129.40703 159.834282 
L 128.816501 159.106557 
L 128.226259 158.371585 
L 127.636295 157.629361 
L 127.046601 156.879881 
L 126.45717 156.123142 
L 125.867994 155.359139 
L 125.279066 154.587866 
L 124.690377 153.80932 
L 124.10192 153.023494 
L 123.513688 152.230385 
L 122.925672 151.429985 
L 122.337865 150.622291 
L 121.750259 149.807296 
L 121.162847 148.984993 
L 120.575621 148.155378 
L 119.988573 147.318442 
L 119.401697 146.474181 
L 118.814983 145.622588 
L 118.228425 144.763655 
L 117.642015 143.897375 
L 117.055746 143.023741 
L 116.46961 142.142746 
L 115.883599 141.254382 
L 115.297706 140.358642 
L 114.711923 139.455516 
L 114.126243 138.544998 
L 113.540658 137.627079 
L 112.955161 136.70175 
L 112.369745 135.769003 
L 111.784401 134.828829 
L 111.199122 133.881218 
L 110.613901 132.926161 
L 110.028731 131.963649 
L 109.443603 130.993673 
L 108.858511 130.016222 
L 108.273447 129.031286 
L 107.688403 128.038856 
L 107.103372 127.038921 
L 106.518347 126.03147 
L 105.933319 125.016492 
L 105.348283 123.993977 
L 104.763229 122.963914 
L 104.178151 121.92629 
L 103.593042 120.881096 
L 103.007893 119.828318 
L 102.422698 118.767945 
L 102.585307 119.464561 
L 102.747617 120.152699 
L 102.90963 120.832383 
L 103.071348 121.503634 
L 103.232774 122.166474 
L 103.39391 122.820925 
L 103.55476 123.467009 
L 103.715325 124.104745 
L 103.875608 124.734156 
L 104.035611 125.355262 
L 104.195338 125.968084 
L 104.354789 126.57264 
L 104.513969 127.168952 
L 104.672878 127.757039 
L 104.83152 128.33692 
L 104.989897 128.908615 
L 105.148011 129.472142 
L 105.305865 130.02752 
L 105.463461 130.574767 
L 105.620801 131.113903 
L 105.777888 131.644943 
L 105.934724 132.167907 
L 106.091312 132.682812 
L 106.247653 133.189675 
L 106.403749 133.688512 
L 106.559605 134.179342 
L 106.71522 134.662179 
L 106.870598 135.137041 
L 107.025742 135.603944 
L 107.180652 136.062904 
L 107.335332 136.513935 
L 107.489784 136.957054 
L 107.64401 137.392276 
L 107.798012 137.819615 
L 107.951792 138.239087 
L 108.105352 138.650706 
L 108.258696 139.054486 
L 108.411824 139.450442 
L 108.564739 139.838586 
L 108.717443 140.218934 
L 108.869939 140.591498 
L 109.022228 140.956291 
L 109.174312 141.313327 
L 109.326194 141.662618 
L 109.477877 142.004176 
L 109.62936 142.338015 
L 109.780648 142.664147 
L 109.931742 142.982583 
L 110.082644 143.293334 
L 110.233357 143.596414 
L 110.383881 143.891832 
L 110.53422 144.1796 
L 110.684376 144.45973 
L 110.834349 144.732231 
L 110.984144 144.997114 
L 111.13376 145.25439 
L 111.283202 145.504068 
L 111.43247 145.746159 
L 111.581566 145.980672 
L 111.730493 146.207617 
L 111.879252 146.427003 
L 112.027846 146.638839 
L 112.176277 146.843134 
L 112.324546 147.039897 
L 112.472655 147.229137 
L 112.620607 147.41086 
L 112.768403 147.585077 
L 112.916045 147.751794 
L 113.063536 147.91102 
L 113.210877 148.062761 
L 113.35807 148.207026 
L 113.505117 148.343822 
L 113.652021 148.473155 
L 113.798782 148.595032 
L 113.945403 148.70946 
L 114.091885 148.816445 
L 114.238231 148.915993 
L 114.384443 149.008111 
L 114.530522 149.092804 
L 114.676471 149.170078 
L 114.822291 149.239939 
L 114.967984 149.302391 
L 115.113551 149.357439 
L 115.258996 149.40509 
L 115.404319 149.445346 
L 115.549523 149.478214 
L 115.694609 149.503696 
L 115.83958 149.521798 
L 115.984436 149.532523 
L 116.129181 149.535875 
L 116.273815 149.531858 
L 116.418341 149.520474 
L 116.56276 149.501728 
L 116.707075 149.475623 
L 116.851287 149.44216 
L 116.995397 149.401343 
L 117.139409 149.353175 
L 117.283323 149.297657 
L 117.427141 149.234792 
z
" clip-path="url(#pd5b93353a0)" style="fill: #7570b3; fill-opacity: 0.5; stroke: #d95f02"/>
    <path d="M 102.422698 118.767945 
L 103.007893 119.828318 
L 103.593042 120.881096 
L 104.178151 121.92629 
L 104.763229 122.963914 
L 105.348283 123.993977 
L 105.933319 125.016492 
L 106.518347 126.03147 
L 107.103372 127.038921 
L 107.688403 128.038856 
L 108.273447 129.031286 
L 108.858511 130.016222 
L 109.443603 130.993673 
L 110.028731 131.963649 
L 110.613901 132.926161 
L 111.199122 133.881218 
L 111.784401 134.828829 
L 112.369745 135.769003 
L 112.955161 136.70175 
L 113.540658 137.627079 
L 114.126243 138.544998 
L 114.711923 139.455516 
L 115.297706 140.358642 
L 115.883599 141.254382 
L 116.46961 142.142746 
L 117.055746 143.023741 
L 117.642015 143.897375 
L 118.228425 144.763655 
L 118.814983 145.622588 
L 119.401697 146.474181 
L 119.988573 147.318442 
L 120.575621 148.155378 
L 121.162847 148.984993 
L 121.750259 149.807296 
L 122.337865 150.622291 
L 122.925672 151.429985 
L 123.513688 152.230385 
L 124.10192 153.023494 
L 124.690377 153.80932 
L 125.279066 154.587866 
L 125.867994 155.359139 
L 126.45717 156.123142 
L 127.046601 156.879881 
L 127.636295 157.629361 
L 128.226259 158.371585 
L 128.816501 159.106557 
L 129.40703 159.834282 
L 129.997853 160.554764 
L 130.588977 161.268006 
L 131.180411 161.974011 
L 131.772162 162.672782 
L 132.364239 163.364324 
L 132.956648 164.048638 
L 133.549399 164.725727 
L 134.142498 165.395595 
L 134.735955 166.058242 
L 135.329776 166.713672 
L 135.92397 167.361886 
L 136.518545 168.002886 
L 137.113508 168.636673 
L 137.708869 169.26325 
L 138.304634 169.882617 
L 138.900812 170.494775 
L 139.497411 171.099725 
L 140.094439 171.697468 
L 140.691905 172.288004 
L 141.289815 172.871335 
L 141.88818 173.447458 
L 142.487006 174.016376 
L 143.086302 174.578087 
L 143.686076 175.13259 
L 144.286337 175.679886 
L 144.887092 176.219974 
L 145.488351 176.752852 
L 146.090121 177.27852 
L 146.692411 177.796975 
L 147.295229 178.308217 
L 147.898584 178.812243 
L 148.502484 179.309052 
L 149.106938 179.798642 
L 149.711953 180.28101 
L 150.317539 180.756153 
L 150.923705 181.22407 
L 151.530458 181.684756 
L 152.137808 182.138209 
L 152.745762 182.584426 
L 153.35433 183.023404 
L 153.963521 183.455137 
L 154.573343 183.879624 
L 155.183805 184.296859 
L 155.794916 184.706838 
L 156.406684 185.109557 
L 157.019119 185.505011 
L 157.632229 185.893196 
L 158.246024 186.274106 
L 158.860511 186.647735 
L 159.475702 187.01408 
L 160.091603 187.373133 
L 160.708225 187.724889 
L 161.325577 188.069342 
L 161.943667 188.406486 
L 161.796549 188.489868 
L 161.649395 188.573271 
L 161.502204 188.656695 
L 161.354976 188.740139 
L 161.207712 188.823605 
L 161.060411 188.907091 
L 160.913073 188.990598 
L 160.765698 189.074126 
L 160.618287 189.157674 
L 160.470839 189.241244 
L 160.323354 189.324834 
L 160.175832 189.408445 
L 160.028274 189.492077 
L 159.880678 189.57573 
L 159.733046 189.659404 
L 159.585377 189.743098 
L 159.437671 189.826814 
L 159.289928 189.91055 
L 159.142149 189.994308 
L 158.994332 190.078086 
L 158.846479 190.161885 
L 158.698588 190.245705 
L 158.550661 190.329546 
L 158.402697 190.413408 
L 158.254695 190.497291 
L 158.106657 190.581195 
L 157.958582 190.66512 
L 157.810469 190.749066 
L 157.66232 190.833033 
L 157.514134 190.917021 
L 157.36591 191.00103 
L 157.21765 191.085059 
L 157.069352 191.16911 
L 156.921017 191.253182 
L 156.772646 191.337275 
L 156.624237 191.421389 
L 156.475791 191.505524 
L 156.327307 191.589681 
L 156.178787 191.673858 
L 156.030229 191.758056 
L 155.881634 191.842275 
L 155.733002 191.926516 
L 155.584333 192.010777 
L 155.435627 192.09506 
L 155.286883 192.179364 
L 155.138102 192.263689 
L 154.989284 192.348035 
L 154.840428 192.432402 
L 154.691535 192.51679 
L 154.542605 192.6012 
L 154.393637 192.68563 
L 154.244632 192.770082 
L 154.09559 192.854555 
L 153.94651 192.939049 
L 153.797393 193.023564 
L 153.648239 193.108101 
L 153.499047 193.192659 
L 153.349818 193.277238 
L 153.200551 193.361838 
L 153.051247 193.446459 
L 152.901905 193.531102 
L 152.752526 193.615766 
L 152.603109 193.700451 
L 152.453655 193.785158 
L 152.304163 193.869885 
L 152.154634 193.954634 
L 152.005067 194.039405 
L 151.855462 194.124196 
L 151.70582 194.209009 
L 151.556141 194.293843 
L 151.406423 194.378699 
L 151.256668 194.463576 
L 151.106876 194.548474 
L 150.957045 194.633394 
L 150.807178 194.718334 
L 150.657272 194.803297 
L 150.507329 194.88828 
L 150.357348 194.973285 
L 150.207329 195.058312 
L 150.057272 195.14336 
L 149.907178 195.228429 
L 149.757046 195.313519 
L 149.606876 195.398632 
L 149.456668 195.483765 
L 149.306423 195.56892 
L 149.15614 195.654096 
L 149.005818 195.739294 
L 148.855459 195.824513 
L 148.705063 195.909754 
L 148.554628 195.995016 
L 148.404155 196.0803 
L 148.253644 196.165605 
L 148.103096 196.250932 
L 147.952509 196.33628 
L 147.801885 196.42165 
L 147.651222 196.507041 
L 147.500522 196.592454 
L 147.349784 196.677888 
L 147.199007 196.763344 
L 147.048193 196.848821 
L 146.429789 196.503188 
L 145.812067 196.1502 
L 145.195019 195.789862 
L 144.578636 195.422181 
L 143.962907 195.047162 
L 143.347825 194.664812 
L 142.733379 194.275136 
L 142.119562 193.878138 
L 141.506363 193.473825 
L 140.893775 193.0622 
L 140.281787 192.643269 
L 139.670392 192.217036 
L 139.059581 191.783506 
L 138.449343 191.342682 
L 137.839672 190.894568 
L 137.230558 190.439168 
L 136.621992 189.976485 
L 136.013965 189.506524 
L 135.406469 189.029286 
L 134.799496 188.544774 
L 134.193036 188.052992 
L 133.587082 187.553942 
L 132.981623 187.047625 
L 132.376653 186.534045 
L 131.772162 186.013203 
L 131.168142 185.485101 
L 130.564585 184.94974 
L 129.961481 184.407122 
L 129.358824 183.857247 
L 128.756603 183.300117 
L 128.154812 182.735733 
L 127.553441 182.164095 
L 126.952482 181.585203 
L 126.351928 180.999057 
L 125.751768 180.405658 
L 125.151997 179.805006 
L 124.552605 179.197099 
L 123.953583 178.581938 
L 123.354925 177.959522 
L 122.756621 177.329849 
L 122.158664 176.692919 
L 121.561045 176.048729 
L 120.963756 175.39728 
L 120.36679 174.738568 
L 119.770138 174.072593 
L 119.173792 173.399352 
L 118.577744 172.718842 
L 117.981986 172.031061 
L 117.38651 171.336008 
L 116.791308 170.633678 
L 116.196373 169.924069 
L 115.601695 169.207177 
L 115.007268 168.483 
L 114.413083 167.751533 
L 113.819133 167.012774 
L 113.225409 166.266717 
L 112.631903 165.513359 
L 112.038609 164.752696 
L 111.445517 163.984723 
L 110.85262 163.209435 
L 110.259911 162.426827 
L 109.667381 161.636895 
L 109.075023 160.839634 
L 108.482829 160.035037 
L 107.890791 159.223099 
L 107.298901 158.403815 
L 106.707152 157.577178 
L 106.115535 156.743183 
L 105.524044 155.901822 
L 104.93267 155.05309 
L 104.341406 154.19698 
L 103.750244 153.333484 
L 103.159176 152.462596 
L 102.568194 151.584309 
L 101.977291 150.698614 
L 101.38646 149.805505 
L 100.795692 148.904974 
L 100.20498 147.997011 
L 99.614316 147.08161 
L 99.023693 146.158762 
L 98.433102 145.228458 
L 97.842537 144.29069 
L 97.25199 143.345448 
L 96.661452 142.392724 
L 96.070917 141.432508 
L 95.480377 140.46479 
L 94.889824 139.489561 
L 94.29925 138.506812 
L 93.708648 137.516531 
L 93.118011 136.518708 
L 92.52733 135.513334 
L 91.936598 134.500397 
L 91.345808 133.479887 
L 90.754951 132.451793 
L 90.164021 131.416102 
L 89.57301 130.372805 
L 88.98191 129.321889 
L 88.390713 128.263343 
L 87.799412 127.197154 
L 87.207999 126.12331 
L 87.343099 125.276544 
L 87.478661 124.444887 
L 87.614683 123.628372 
L 87.751161 122.827034 
L 87.888093 122.040907 
L 88.025475 121.270022 
L 88.163304 120.514412 
L 88.301576 119.774107 
L 88.440289 119.049138 
L 88.579439 118.339535 
L 88.719023 117.645325 
L 88.859038 116.966538 
L 88.999479 116.303201 
L 89.140345 115.655339 
L 89.281631 115.022979 
L 89.423334 114.406145 
L 89.56545 113.804861 
L 89.707977 113.219152 
L 89.85091 112.649038 
L 89.994247 112.094543 
L 90.137983 111.555686 
L 90.282114 111.032489 
L 90.426639 110.52497 
L 90.571552 110.033147 
L 90.71685 109.55704 
L 90.862529 109.096664 
L 91.008587 108.652035 
L 91.155018 108.223169 
L 91.30182 107.810081 
L 91.448989 107.412784 
L 91.59652 107.03129 
L 91.744411 106.665613 
L 91.892657 106.315762 
L 92.041254 105.981749 
L 92.190199 105.663584 
L 92.339488 105.361273 
L 92.489117 105.074827 
L 92.639083 104.804252 
L 92.78938 104.549553 
L 92.940005 104.310737 
L 93.090955 104.087809 
L 93.242226 103.880771 
L 93.393812 103.689628 
L 93.545712 103.51438 
L 93.697919 103.355031 
L 93.850431 103.211579 
L 94.003244 103.084025 
L 94.156352 102.972367 
L 94.309754 102.876604 
L 94.463443 102.796733 
L 94.617416 102.732751 
L 94.77167 102.684652 
L 94.926199 102.652432 
L 95.081001 102.636084 
L 95.236069 102.635602 
L 95.391402 102.650978 
L 95.546994 102.682203 
L 95.702841 102.729268 
L 95.858939 102.792164 
L 96.015284 102.870878 
L 96.171872 102.9654 
L 96.328698 103.075717 
L 96.485759 103.201815 
L 96.643049 103.34368 
L 96.800566 103.501297 
L 96.958304 103.674651 
L 97.116259 103.863724 
L 97.274428 104.068501 
L 97.432805 104.288961 
L 97.591387 104.525087 
L 97.750169 104.776859 
L 97.909147 105.044256 
L 98.068317 105.327256 
L 98.227675 105.625839 
L 98.387215 105.93998 
L 98.546935 106.269657 
L 98.706829 106.614845 
L 98.866894 106.975519 
L 99.027124 107.351652 
L 99.187517 107.743219 
L 99.348067 108.150192 
L 99.508769 108.572543 
L 99.669621 109.010242 
L 99.830617 109.46326 
L 99.991754 109.931567 
L 100.153026 110.415132 
L 100.31443 110.913922 
L 100.475961 111.427906 
L 100.637615 111.957049 
L 100.799388 112.501319 
L 100.961275 113.060679 
L 101.123272 113.635095 
L 101.285375 114.224531 
L 101.44758 114.828949 
L 101.609882 115.448312 
L 101.772276 116.082583 
L 101.934759 116.731721 
L 102.097327 117.395688 
L 102.259975 118.074443 
z
" clip-path="url(#pd5b93353a0)" style="fill: #7570b3; fill-opacity: 0.5; stroke: #d95f02"/>
    <path d="M 87.207999 126.12331 
L 87.799412 127.197154 
L 88.390713 128.263343 
L 88.98191 129.321889 
L 89.57301 130.372805 
L 90.164021 131.416102 
L 90.754951 132.451793 
L 91.345808 133.479887 
L 91.936598 134.500397 
L 92.52733 135.513334 
L 93.118011 136.518708 
L 93.708648 137.516531 
L 94.29925 138.506812 
L 94.889824 139.489561 
L 95.480377 140.46479 
L 96.070917 141.432508 
L 96.661452 142.392724 
L 97.25199 143.345448 
L 97.842537 144.29069 
L 98.433102 145.228458 
L 99.023693 146.158762 
L 99.614316 147.08161 
L 100.20498 147.997011 
L 100.795692 148.904974 
L 101.38646 149.805505 
L 101.977291 150.698614 
L 102.568194 151.584309 
L 103.159176 152.462596 
L 103.750244 153.333484 
L 104.341406 154.19698 
L 104.93267 155.05309 
L 105.524044 155.901822 
L 106.115535 156.743183 
L 106.707152 157.577178 
L 107.298901 158.403815 
L 107.890791 159.223099 
L 108.482829 160.035037 
L 109.075023 160.839634 
L 109.667381 161.636895 
L 110.259911 162.426827 
L 110.85262 163.209435 
L 111.445517 163.984723 
L 112.038609 164.752696 
L 112.631903 165.513359 
L 113.225409 166.266717 
L 113.819133 167.012774 
L 114.413083 167.751533 
L 115.007268 168.483 
L 115.601695 169.207177 
L 116.196373 169.924069 
L 116.791308 170.633678 
L 117.38651 171.336008 
L 117.981986 172.031061 
L 118.577744 172.718842 
L 119.173792 173.399352 
L 119.770138 174.072593 
L 120.36679 174.738568 
L 120.963756 175.39728 
L 121.561045 176.048729 
L 122.158664 176.692919 
L 122.756621 177.329849 
L 123.354925 177.959522 
L 123.953583 178.581938 
L 124.552605 179.197099 
L 125.151997 179.805006 
L 125.751768 180.405658 
L 126.351928 180.999057 
L 126.952482 181.585203 
L 127.553441 182.164095 
L 128.154812 182.735733 
L 128.756603 183.300117 
L 129.358824 183.857247 
L 129.961481 184.407122 
L 130.564585 184.94974 
L 131.168142 185.485101 
L 131.772162 186.013203 
L 132.376653 186.534045 
L 132.981623 187.047625 
L 133.587082 187.553942 
L 134.193036 188.052992 
L 134.799496 188.544774 
L 135.406469 189.029286 
L 136.013965 189.506524 
L 136.621992 189.976485 
L 137.230558 190.439168 
L 137.839672 190.894568 
L 138.449343 191.342682 
L 139.059581 191.783506 
L 139.670392 192.217036 
L 140.281787 192.643269 
L 140.893775 193.0622 
L 141.506363 193.473825 
L 142.119562 193.878138 
L 142.733379 194.275136 
L 143.347825 194.664812 
L 143.962907 195.047162 
L 144.578636 195.422181 
L 145.195019 195.789862 
L 145.812067 196.1502 
L 146.429789 196.503188 
L 147.048193 196.848821 
L 146.89734 196.93432 
L 146.746449 197.019841 
L 146.595521 197.105383 
L 146.444554 197.190947 
L 146.293549 197.276532 
L 146.142506 197.362139 
L 145.991425 197.447767 
L 145.840306 197.533418 
L 145.689148 197.619089 
L 145.537952 197.704783 
L 145.386719 197.790498 
L 145.235447 197.876235 
L 145.084136 197.961993 
L 144.932788 198.047773 
L 144.781401 198.133575 
L 144.629976 198.219398 
L 144.478513 198.305243 
L 144.327011 198.39111 
L 144.175471 198.476999 
L 144.023893 198.562909 
L 143.872276 198.648841 
L 143.720621 198.734795 
L 143.568928 198.82077 
L 143.417196 198.906768 
L 143.265426 198.992787 
L 143.113618 199.078827 
L 142.961771 199.16489 
L 142.809886 199.250974 
L 142.657962 199.33708 
L 142.506 199.423208 
L 142.353999 199.509358 
L 142.201959 199.59553 
L 142.049882 199.681723 
L 141.897765 199.767938 
L 141.745611 199.854175 
L 141.593417 199.940434 
L 141.441185 200.026715 
L 141.288915 200.113018 
L 141.136605 200.199342 
L 140.984258 200.285689 
L 140.831871 200.372057 
L 140.679446 200.458447 
L 140.526982 200.544859 
L 140.37448 200.631293 
L 140.221939 200.717749 
L 140.069359 200.804227 
L 139.916741 200.890727 
L 139.764083 200.977249 
L 139.611387 201.063793 
L 139.458653 201.150359 
L 139.305879 201.236946 
L 139.153067 201.323556 
L 139.000216 201.410188 
L 138.847326 201.496842 
L 138.694397 201.583517 
L 138.541429 201.670215 
L 138.388423 201.756935 
L 138.235377 201.843677 
L 138.082293 201.93044 
L 137.92917 202.017226 
L 137.776008 202.104034 
L 137.622806 202.190864 
L 137.469566 202.277717 
L 137.316287 202.364591 
L 137.162969 202.451487 
L 137.009612 202.538406 
L 136.856216 202.625346 
L 136.702781 202.712309 
L 136.549307 202.799294 
L 136.395794 202.8863 
L 136.242242 202.97333 
L 136.088651 203.060381 
L 135.93502 203.147454 
L 135.781351 203.23455 
L 135.627642 203.321667 
L 135.473894 203.408807 
L 135.320107 203.49597 
L 135.166281 203.583154 
L 135.012416 203.67036 
L 134.858511 203.757589 
L 134.704567 203.84484 
L 134.550584 203.932113 
L 134.396562 204.019409 
L 134.2425 204.106727 
L 134.088399 204.194067 
L 133.934259 204.281429 
L 133.78008 204.368814 
L 133.625861 204.456221 
L 133.471603 204.54365 
L 133.317305 204.631101 
L 133.162968 204.718575 
L 133.008592 204.806071 
L 132.854177 204.89359 
L 132.699721 204.98113 
L 132.545227 205.068693 
L 132.390693 205.156279 
L 132.236119 205.243887 
L 132.081507 205.331517 
L 131.926854 205.41917 
L 131.772162 205.506845 
L 131.153631 205.156279 
L 130.535732 204.806071 
L 129.918463 204.456221 
L 129.301824 204.106727 
L 128.685813 203.757589 
L 128.07043 203.408807 
L 127.455674 203.060381 
L 126.841543 202.712309 
L 126.228037 202.364591 
L 125.615155 202.017226 
L 125.002895 201.670215 
L 124.391258 201.323556 
L 123.780241 200.977249 
L 123.169844 200.631293 
L 122.560067 200.285689 
L 121.950907 199.940434 
L 121.342365 199.59553 
L 120.734439 199.250974 
L 120.127128 198.906768 
L 119.520431 198.562909 
L 118.914348 198.219398 
L 118.308878 197.876235 
L 117.704019 197.533418 
L 117.09977 197.190947 
L 116.496132 196.848821 
L 115.893102 196.507041 
L 115.29068 196.165605 
L 114.688865 195.824513 
L 114.087656 195.483765 
L 113.487052 195.14336 
L 112.887052 194.803297 
L 112.287656 194.463576 
L 111.688862 194.124196 
L 111.09067 193.785158 
L 110.493078 193.446459 
L 109.896085 193.108101 
L 109.299692 192.770082 
L 108.703896 192.432402 
L 108.108698 192.09506 
L 107.514095 191.758056 
L 106.920088 191.421389 
L 106.326675 191.085059 
L 105.733855 190.749066 
L 105.141628 190.413408 
L 104.549992 190.078086 
L 103.958947 189.743098 
L 103.368492 189.408445 
L 102.778626 189.074126 
L 102.189348 188.740139 
L 101.600657 188.406486 
L 101.012553 188.073165 
L 100.425034 187.740176 
L 99.8381 187.407518 
L 99.251749 187.075191 
L 98.665981 186.743194 
L 98.080795 186.411527 
L 97.49619 186.08019 
L 96.912166 185.749181 
L 96.32872 185.418501 
L 95.745854 185.088148 
L 95.163565 184.758123 
L 94.581852 184.428425 
L 94.000716 184.099054 
L 93.420155 183.770008 
L 92.840168 183.441287 
L 92.260754 183.112892 
L 91.681913 182.784821 
L 91.103643 182.457074 
L 90.525945 182.129651 
L 89.948816 181.802551 
L 89.372257 181.475773 
L 88.796266 181.149318 
L 88.220842 180.823184 
L 87.645985 180.497371 
L 87.071693 180.171879 
L 86.497967 179.846707 
L 85.924805 179.521855 
L 85.352206 179.197322 
L 84.780169 178.873107 
L 84.208694 178.549212 
L 83.63778 178.225634 
L 83.067426 177.902373 
L 82.497631 177.579429 
L 81.928394 177.256802 
L 81.359715 176.934491 
L 80.791593 176.612495 
L 80.224026 176.290814 
L 79.657015 175.969448 
L 79.090558 175.648396 
L 78.524654 175.327658 
L 77.959303 175.007232 
L 77.394503 174.68712 
L 76.830255 174.36732 
L 76.266557 174.047832 
L 75.703408 173.728655 
L 75.140808 173.409789 
L 74.578755 173.091234 
L 74.01725 172.772988 
L 73.456291 172.455052 
L 72.895877 172.137425 
L 73.050079 172.054302 
L 73.203995 171.963667 
L 73.357628 171.865524 
L 73.510978 171.759872 
L 73.664048 171.646714 
L 73.816841 171.52605 
L 73.969358 171.397881 
L 74.1216 171.262207 
L 74.273571 171.119028 
L 74.425273 170.968345 
L 74.576706 170.810158 
L 74.727874 170.644466 
L 74.878778 170.471268 
L 75.02942 170.290565 
L 75.179802 170.102354 
L 75.329926 169.906636 
L 75.479794 169.703409 
L 75.629409 169.492671 
L 75.778771 169.274421 
L 75.927883 169.048657 
L 76.076747 168.815377 
L 76.225365 168.574579 
L 76.373738 168.32626 
L 76.521869 168.070418 
L 76.669759 167.80705 
L 76.817411 167.536153 
L 76.964826 167.257724 
L 77.112006 166.971759 
L 77.258953 166.678256 
L 77.40567 166.377209 
L 77.552156 166.068616 
L 77.698416 165.752473 
L 77.84445 165.428774 
L 77.99026 165.097515 
L 78.135849 164.758693 
L 78.281217 164.412301 
L 78.426368 164.058334 
L 78.571302 163.696788 
L 78.716022 163.327658 
L 78.860528 162.950936 
L 79.004825 162.566618 
L 79.148912 162.174697 
L 79.292791 161.775167 
L 79.436466 161.368022 
L 79.579936 160.953255 
L 79.723205 160.530859 
L 79.866274 160.100827 
L 80.009144 159.663152 
L 80.151818 159.217827 
L 80.294297 158.764843 
L 80.436583 158.304193 
L 80.578678 157.83587 
L 80.720584 157.359864 
L 80.862301 156.876167 
L 81.003833 156.384771 
L 81.145181 155.885667 
L 81.286346 155.378846 
L 81.42733 154.864298 
L 81.568135 154.342014 
L 81.708763 153.811986 
L 81.849216 153.274201 
L 81.989494 152.728652 
L 82.129601 152.175327 
L 82.269537 151.614215 
L 82.409304 151.045308 
L 82.548905 150.468592 
L 82.68834 149.884058 
L 82.827612 149.291694 
L 82.966722 148.691489 
L 83.105671 148.083431 
L 83.244462 147.467508 
L 83.383097 146.843707 
L 83.521576 146.212018 
L 83.659902 145.572426 
L 83.798076 144.92492 
L 83.9361 144.269487 
L 84.073976 143.606112 
L 84.211705 142.934784 
L 84.349289 142.255487 
L 84.48673 141.568209 
L 84.624029 140.872936 
L 84.761188 140.169653 
L 84.898209 139.458345 
L 85.035093 138.738999 
L 85.171842 138.011598 
L 85.308457 137.276129 
L 85.444941 136.532575 
L 85.581295 135.780922 
L 85.717521 135.021152 
L 85.85362 134.253251 
L 85.989593 133.477202 
L 86.125444 132.692989 
L 86.261172 131.900594 
L 86.39678 131.100002 
L 86.53227 130.291194 
L 86.667643 129.474153 
L 86.802901 128.648863 
L 86.938045 127.815304 
L 87.073077 126.973459 
z
" clip-path="url(#pd5b93353a0)" style="fill: #7570b3; fill-opacity: 0.5; stroke: #d95f02"/>
   </g>
  </g>
 </g>
 <defs>
  <clipPath id="pd5b93353a0">
   <rect x="32.13" y="30.24" width="194.04" height="194.04"/>
  </clipPath>
 </defs>
</svg>
