<?xml version="1.0" encoding="utf-8" standalone="no"?>
<!DOCTYPE svg PUBLIC "-//W3C//DTD SVG 1.1//EN"
  "http://www.w3.org/Graphics/SVG/1.1/DTD/svg11.dtd">
<svg xmlns:xlink="http://www.w3.org/1999/xlink" width="252pt" height="252pt" viewBox="0 0 252 252" xmlns="http://www.w3.org/2000/svg" version="1.1">
 <metadata>
  <rdf:RDF xmlns:dc="http://purl.org/dc/elements/1.1/" xmlns:cc="http://creativecommons.org/ns#" xmlns:rdf="http://www.w3.org/1999/02/22-rdf-syntax-ns#">
   <cc:Work>
    <dc:type rdf:resource="http://purl.org/dc/dcmitype/StillImage"/>
    <dc:date>2026-02-05T11:28:44.437739</dc:date>
    <dc:format>image/svg+xml</dc:format>
    <dc:creator>
     <cc:Agent>
      <dc:title>Matplotlib v3.9.4, https://matplotlib.org/</dc:title>
     </cc:Agent>
    </dc:creator>
   </cc:Work>
  </rdf:RDF>
 </metadata>
 <defs>
  <style type="text/css">*{stroke-linejoin: round; stroke-linecap: butt}</style>
 </defs>
 <g id="figure_1">
  <g id="patch_1">
   <path d="M 0 252 
L 252 252 
L 252 0 
L 0 0 
z
" style="fill: #ffffff"/>
  </g>
  <g id="patch_2">
   <path d="M 10.8 241.2 
L 241.2 241.2 
L 241.2 10.8 
L 10.8 10.8 
z
" style="fill: #ffffff"/>
  </g>
  <g id="pane3d_1">
   <g id="patch_3">
    <path d="M 129.113514 118.988603 
L 231.66194 169.984859 
L 236.344516 73.637504 
L 129.113514 27.159938 
" style="fill: #f2f2f2; opacity: 0.5; stroke: #f2f2f2; stroke-linejoin: miter"/>
   </g>
  </g>
  <g id="pane3d_2">
   <g id="patch_4">
    <path d="M 129.113514 118.988603 
L 26.565087 169.984859 
L 21.882511 73.637504 
L 129.113514 27.159938 
" style="fill: #e6e6e6; opacity: 0.5; stroke: #e6e6e6; stroke-linejoin: miter"/>
   </g>
  </g>
  <g id="pane3d_3">
   <g id="patch_5">
    <path d="M 129.113514 118.988603 
L 26.565087 169.984859 
L 129.113514 228.812639 
L 231.66194 169.984859 
" style="fill: #ececec; opacity: 0.5; stroke: #ececec; stroke-linejoin: miter"/>
   </g>
  </g>
  <g id="grid3d_1">
   <g id="Line3DCollection_1">
    <path d="M 225.573857 173.477339 
L 122.996171 122.030693 
L 122.73507 29.924573 
" style="fill: none; stroke: #b0b0b0; stroke-width: 0.8"/>
    <path d="M 208.586987 183.222002 
L 105.947266 130.508934 
L 104.946307 37.634828 
" style="fill: none; stroke: #b0b0b0; stroke-width: 0.8"/>
    <path d="M 191.164439 193.216595 
L 88.491021 139.189742 
L 86.713933 45.537359 
" style="fill: none; stroke: #b0b0b0; stroke-width: 0.8"/>
    <path d="M 173.289236 203.470858 
L 70.612661 148.080462 
L 68.021147 53.639449 
" style="fill: none; stroke: #b0b0b0; stroke-width: 0.8"/>
    <path d="M 154.943504 213.995044 
L 52.296689 157.188803 
L 48.850284 61.948753 
" style="fill: none; stroke: #b0b0b0; stroke-width: 0.8"/>
    <path d="M 136.108417 224.799952 
L 33.526836 166.522854 
L 29.182767 70.473324 
" style="fill: none; stroke: #b0b0b0; stroke-width: 0.8"/>
   </g>
  </g>
  <g id="grid3d_2">
   <g id="Line3DCollection_2">
    <path d="M 135.491957 29.924573 
L 135.230856 122.030693 
L 32.65317 173.477339 
" style="fill: none; stroke: #b0b0b0; stroke-width: 0.8"/>
    <path d="M 153.28072 37.634828 
L 152.279761 130.508934 
L 49.64004 183.222002 
" style="fill: none; stroke: #b0b0b0; stroke-width: 0.8"/>
    <path d="M 171.513094 45.537359 
L 169.736006 139.189742 
L 67.062588 193.216595 
" style="fill: none; stroke: #b0b0b0; stroke-width: 0.8"/>
    <path d="M 190.20588 53.639449 
L 187.614366 148.080462 
L 84.937791 203.470858 
" style="fill: none; stroke: #b0b0b0; stroke-width: 0.8"/>
    <path d="M 209.376743 61.948753 
L 205.930339 157.188803 
L 103.283523 213.995044 
" style="fill: none; stroke: #b0b0b0; stroke-width: 0.8"/>
    <path d="M 229.04426 70.473324 
L 224.700191 166.522854 
L 122.11861 224.799952 
" style="fill: none; stroke: #b0b0b0; stroke-width: 0.8"/>
   </g>
  </g>
  <g id="grid3d_3">
   <g id="Line3DCollection_3">
    <path d="M 26.279323 164.105062 
L 129.113514 113.368578 
L 231.947704 164.105062 
" style="fill: none; stroke: #b0b0b0; stroke-width: 0.8"/>
    <path d="M 25.487276 147.808115 
L 129.113514 97.802527 
L 232.739751 147.808115 
" style="fill: none; stroke: #b0b0b0; stroke-width: 0.8"/>
    <path d="M 24.682932 131.258176 
L 129.113514 82.011191 
L 233.544095 131.258176 
" style="fill: none; stroke: #b0b0b0; stroke-width: 0.8"/>
    <path d="M 23.866005 114.449307 
L 129.113514 65.989641 
L 234.361022 114.449307 
" style="fill: none; stroke: #b0b0b0; stroke-width: 0.8"/>
    <path d="M 23.036195 97.375384 
L 129.113514 49.732807 
L 235.190832 97.375384 
" style="fill: none; stroke: #b0b0b0; stroke-width: 0.8"/>
    <path d="M 22.193197 80.030087 
L 129.113514 33.235469 
L 236.03383 80.030087 
" style="fill: none; stroke: #b0b0b0; stroke-width: 0.8"/>
   </g>
  </g>
  <g id="axis3d_1">
   <g id="line2d_1">
    <path d="M 231.66194 169.984859 
L 129.113514 228.812639 
" style="fill: none; stroke: #000000; stroke-width: 0.8; stroke-linecap: square"/>
   </g>
   <g id="xtick_1">
    <g id="line2d_2">
     <path d="M 224.694955 173.036535 
L 227.334689 174.360463 
" style="fill: none; stroke: #000000; stroke-width: 0.8; stroke-linecap: square"/>
    </g>
   </g>
   <g id="xtick_2">
    <g id="line2d_3">
     <path d="M 207.706814 182.769969 
L 210.3504 184.127645 
" style="fill: none; stroke: #000000; stroke-width: 0.8; stroke-linecap: square"/>
    </g>
   </g>
   <g id="xtick_3">
    <g id="line2d_4">
     <path d="M 190.283221 192.752897 
L 192.929988 194.145629 
" style="fill: none; stroke: #000000; stroke-width: 0.8; stroke-linecap: square"/>
    </g>
   </g>
   <g id="xtick_4">
    <g id="line2d_5">
     <path d="M 172.407214 202.995038 
L 175.056436 204.4242 
" style="fill: none; stroke: #000000; stroke-width: 0.8; stroke-linecap: square"/>
    </g>
   </g>
   <g id="xtick_5">
    <g id="line2d_6">
     <path d="M 154.060941 213.50662 
L 156.71183 214.973661 
" style="fill: none; stroke: #000000; stroke-width: 0.8; stroke-linecap: square"/>
    </g>
   </g>
   <g id="xtick_6">
    <g id="line2d_7">
     <path d="M 135.225597 224.298418 
L 137.8773 225.804863 
" style="fill: none; stroke: #000000; stroke-width: 0.8; stroke-linecap: square"/>
    </g>
   </g>
   <g id="text_1">
    <text style="font: 10px 'DejaVu Sans', 'Bitstream Vera Sans', 'Computer Modern Sans Serif', 'Lucida Grande', 'Verdana', 'Geneva', 'Lucid', 'Arial', 'Helvetica', 'Avant Garde', sans-serif; text-anchor: middle" x="192.197078" y="215.133597" transform="rotate(-0 192.197078 215.133597)">$x$</text>
   </g>
  </g>
  <g id="axis3d_2">
   <g id="line2d_8">
    <path d="M 26.565087 169.984859 
L 129.113514 228.812639 
" style="fill: none; stroke: #000000; stroke-width: 0.8; stroke-linecap: square"/>
   </g>
   <g id="xtick_7">
    <g id="line2d_9">
     <path d="M 33.532072 173.036535 
L 30.892338 174.360463 
" style="fill: none; stroke: #000000; stroke-width: 0.8; stroke-linecap: square"/>
    </g>
   </g>
   <g id="xtick_8">
    <g id="line2d_10">
     <path d="M 50.520213 182.769969 
L 47.876627 184.127645 
" style="fill: none; stroke: #000000; stroke-width: 0.8; stroke-linecap: square"/>
    </g>
   </g>
   <g id="xtick_9">
    <g id="line2d_11">
     <path d="M 67.943806 192.752897 
L 65.297039 194.145629 
" style="fill: none; stroke: #000000; stroke-width: 0.8; stroke-linecap: square"/>
    </g>
   </g>
   <g id="xtick_10">
    <g id="line2d_12">
     <path d="M 85.819813 202.995038 
L 83.170591 204.4242 
" style="fill: none; stroke: #000000; stroke-width: 0.8; stroke-linecap: square"/>
    </g>
   </g>
   <g id="xtick_11">
    <g id="line2d_13">
     <path d="M 104.166086 213.50662 
L 101.515197 214.973661 
" style="fill: none; stroke: #000000; stroke-width: 0.8; stroke-linecap: square"/>
    </g>
   </g>
   <g id="xtick_12">
    <g id="line2d_14">
     <path d="M 123.00143 224.298418 
L 120.349727 225.804863 
" style="fill: none; stroke: #000000; stroke-width: 0.8; stroke-linecap: square"/>
    </g>
   </g>
   <g id="text_2">
    <text style="font: 10px 'DejaVu Sans', 'Bitstream Vera Sans', 'Computer Modern Sans Serif', 'Lucida Grande', 'Verdana', 'Geneva', 'Lucid', 'Arial', 'Helvetica', 'Avant Garde', sans-serif; text-anchor: middle" x="66.029949" y="215.133597" transform="rotate(-0 66.029949 215.133597)">$y$</text>
   </g>
  </g>
  <g id="axis3d_3">
   <g id="line2d_15">
    <path d="M 26.565087 169.984859 
L 21.882511 73.637504 
" style="fill: none; stroke: #000000; stroke-width: 0.8; stroke-linecap: square"/>
   </g>
   <g id="xtick_13">
    <g id="line2d_16">
     <path d="M 27.160321 163.670394 
L 24.514301 164.975891 
" style="fill: none; stroke: #000000; stroke-width: 0.8; stroke-linecap: square"/>
    </g>
   </g>
   <g id="xtick_14">
    <g id="line2d_17">
     <path d="M 26.375511 147.379491 
L 23.707729 148.666849 
" style="fill: none; stroke: #000000; stroke-width: 0.8; stroke-linecap: square"/>
    </g>
   </g>
   <g id="xtick_15">
    <g id="line2d_18">
     <path d="M 25.578526 130.835836 
L 22.888621 132.104331 
" style="fill: none; stroke: #000000; stroke-width: 0.8; stroke-linecap: square"/>
    </g>
   </g>
   <g id="xtick_16">
    <g id="line2d_19">
     <path d="M 24.769078 114.033501 
L 22.056683 115.282383 
" style="fill: none; stroke: #000000; stroke-width: 0.8; stroke-linecap: square"/>
    </g>
   </g>
   <g id="xtick_17">
    <g id="line2d_20">
     <path d="M 23.946874 96.96637 
L 21.21161 98.194861 
" style="fill: none; stroke: #000000; stroke-width: 0.8; stroke-linecap: square"/>
    </g>
   </g>
   <g id="xtick_18">
    <g id="line2d_21">
     <path d="M 23.111609 79.628136 
L 20.35309 80.835426 
" style="fill: none; stroke: #000000; stroke-width: 0.8; stroke-linecap: square"/>
    </g>
   </g>
   <g id="text_3">
    <text style="font: 10px 'DejaVu Sans', 'Bitstream Vera Sans', 'Computer Modern Sans Serif', 'Lucida Grande', 'Verdana', 'Geneva', 'Lucid', 'Arial', 'Helvetica', 'Avant Garde', sans-serif; text-anchor: middle" x="5.05586" y="125.645861" transform="rotate(-0 5.05586 125.645861)">$z$</text>
   </g>
  </g>
  <g id="axes_1">
   <g id="Poly3DCollection_1">
    <path d="M 39.367311 164.105062 
L 39.023016 155.987849 
L 38.67607 147.808115 
L 38.32644 139.565137 
L 37.974097 131.258176 
L 37.619009 122.886486 
L 37.261142 114.449307 
L 36.900465 105.945868 
L 36.536945 97.375384 
L 36.170547 88.73706 
L 35.801237 80.030087 
L 39.303015 81.718994 
L 42.955257 83.339119 
L 46.757796 84.889414 
L 50.71036 86.368868 
L 54.812574 87.776512 
L 59.063953 89.111415 
L 63.463909 90.372692 
L 68.011744 91.5595 
L 72.706656 92.671042 
L 77.547731 93.706567 
L 82.488893 94.655285 
L 87.483432 95.506352 
L 92.529373 96.259037 
L 97.624683 96.91269 
L 102.767283 97.466747 
L 107.955041 97.920725 
L 113.185781 98.27423 
L 118.457285 98.526954 
L 123.767294 98.678677 
L 129.113514 98.729266 
L 134.459733 98.678677 
L 139.769742 98.526954 
L 145.041246 98.27423 
L 150.271986 97.920725 
L 155.459744 97.466747 
L 160.602344 96.91269 
L 165.697655 96.259037 
L 170.743595 95.506352 
L 175.738134 94.655285 
L 180.679296 93.706567 
L 185.520371 92.671042 
L 190.215283 91.5595 
L 194.763118 90.372692 
L 199.163074 89.111415 
L 203.414453 87.776512 
L 207.516667 86.368868 
L 211.469231 84.889414 
L 215.27177 83.339119 
L 218.924012 81.718994 
L 222.42579 80.030087 
L 222.05648 88.73706 
L 221.690082 97.375384 
L 221.326562 105.945868 
L 220.965885 114.449307 
L 220.608018 122.886486 
L 220.25293 131.258176 
L 219.900587 139.565137 
L 219.550957 147.808115 
L 219.204011 155.987849 
L 218.859716 164.105062 
L 215.483519 165.931221 
L 211.963603 167.682681 
L 208.300131 169.35835 
L 204.493362 170.957175 
L 200.543654 172.478148 
L 196.451458 173.9203 
L 192.217329 175.282711 
L 187.841914 176.564505 
L 183.325963 177.764852 
L 178.670323 178.882975 
L 173.919265 179.90725 
L 169.117645 180.826005 
L 164.26729 181.63848 
L 159.370079 182.344 
L 154.427934 182.94198 
L 149.442826 183.431919 
L 144.416763 183.813409 
L 139.351795 184.086131 
L 134.250005 184.249856 
L 129.113514 184.304446 
L 123.977022 184.249856 
L 118.875232 184.086131 
L 113.810264 183.813409 
L 108.784201 183.431919 
L 103.799093 182.94198 
L 98.856948 182.344 
L 93.959737 181.63848 
L 89.109382 180.826005 
L 84.307762 179.90725 
L 79.556704 178.882975 
L 74.901064 177.764852 
L 70.385113 176.564505 
L 66.009698 175.282711 
L 61.775569 173.9203 
L 57.683374 172.478148 
L 53.733665 170.957175 
L 49.926896 169.35835 
L 46.263424 167.682681 
L 42.743508 165.931221 
z
" clip-path="url(#p41b26ae08c)" style="fill: #7570b3; fill-opacity: 0.5"/>
   </g>
   <g id="patch_6">
    <path d="M 228.545898 166.879991 
Q 229.425711 148.182415 230.252974 130.601637 
" clip-path="url(#p41b26ae08c)" style="fill: none; stroke: #000000; stroke-linecap: round"/>
    <path d="M 225.881372 138.404783 
L 230.252974 130.601637 
L 233.87253 138.780807 
z
" clip-path="url(#p41b26ae08c)" style="stroke: #000000; stroke-linecap: round"/>
   </g>
   <g id="text_4">
    <text style="font: 10px 'DejaVu Sans', 'Bitstream Vera Sans', 'Computer Modern Sans Serif', 'Lucida Grande', 'Verdana', 'Geneva', 'Lucid', 'Arial', 'Helvetica', 'Avant Garde', sans-serif; text-anchor: middle" x="129.113514" y="213.279344" transform="rotate(-0 129.113514 213.279344)">$\xi$</text>
   </g>
   <g id="text_5">
    <text style="font: 10px 'DejaVu Sans', 'Bitstream Vera Sans', 'Computer Modern Sans Serif', 'Lucida Grande', 'Verdana', 'Geneva', 'Lucid', 'Arial', 'Helvetica', 'Avant Garde', sans-serif; text-anchor: start" x="240.330141" y="154.292783" transform="rotate(-0 240.330141 154.292783)">$\eta$</text>
   </g>
   <g id="Line3DCollection_4">
    <path d="M 39.367311 164.105062 
L 37.619009 122.886486 
L 35.801237 80.030087 
" clip-path="url(#p41b26ae08c)" style="fill: none; stroke: #1b9e77; stroke-width: 1.5"/>
    <path d="M 56.093796 173.536305 
L 54.65334 131.98236 
L 53.154908 88.755957 
" clip-path="url(#p41b26ae08c)" style="fill: none; stroke: #1b9e77; stroke-width: 1.5"/>
    <path d="M 103.347866 184.304446 
L 102.832335 142.372969 
L 102.295753 98.729266 
" clip-path="url(#p41b26ae08c)" style="fill: none; stroke: #1b9e77; stroke-width: 1.5"/>
    <path d="M 154.879161 184.304446 
L 155.394692 142.372969 
L 155.931274 98.729266 
" clip-path="url(#p41b26ae08c)" style="fill: none; stroke: #1b9e77; stroke-width: 1.5"/>
    <path d="M 202.133231 173.536305 
L 203.573687 131.98236 
L 205.072119 88.755957 
" clip-path="url(#p41b26ae08c)" style="fill: none; stroke: #1b9e77; stroke-width: 1.5"/>
    <path d="M 218.859716 164.105062 
L 220.608018 122.886486 
L 222.42579 80.030087 
" clip-path="url(#p41b26ae08c)" style="fill: none; stroke: #1b9e77; stroke-width: 1.5"/>
    <path d="M 39.367311 164.105062 
L 56.093796 173.536305 
L 103.347866 184.304446 
L 154.879161 184.304446 
L 202.133231 173.536305 
L 218.859716 164.105062 
" clip-path="url(#p41b26ae08c)" style="fill: none; stroke: #1b9e77; stroke-width: 1.5"/>
    <path d="M 37.619009 122.886486 
L 54.65334 131.98236 
L 102.832335 142.372969 
L 155.394692 142.372969 
L 203.573687 131.98236 
L 220.608018 122.886486 
" clip-path="url(#p41b26ae08c)" style="fill: none; stroke: #1b9e77; stroke-width: 1.5"/>
    <path d="M 35.801237 80.030087 
L 53.154908 88.755957 
L 102.295753 98.729266 
L 155.931274 98.729266 
L 205.072119 88.755957 
L 222.42579 80.030087 
" clip-path="url(#p41b26ae08c)" style="fill: none; stroke: #1b9e77; stroke-width: 1.5"/>
   </g>
   <g id="patch_7">
    <path d="M 158.162524 197.444894 
Q 129.112206 203.978662 101.152669 197.689657 
" clip-path="url(#p41b26ae08c)" style="fill: none; stroke: #000000; stroke-linecap: round"/>
    <path d="M 108.079863 203.347748 
L 101.152669 197.689657 
L 109.835458 195.542757 
z
" clip-path="url(#p41b26ae08c)" style="stroke: #000000; stroke-linecap: round"/>
   </g>
   <g id="Path3DCollection_1">
    <defs>
     <path id="C0_0_3f11b00783" d="M 0 2.236068 
C 0.593012 2.236068 1.161816 2.000462 1.581139 1.581139 
C 2.000462 1.161816 2.236068 0.593012 2.236068 -0 
C 2.236068 -0.593012 2.000462 -1.161816 1.581139 -1.581139 
C 1.161816 -2.000462 0.593012 -2.236068 0 -2.236068 
C -0.593012 -2.236068 -1.161816 -2.000462 -1.581139 -1.581139 
C -2.000462 -1.161816 -2.236068 -0.593012 -2.236068 0 
C -2.236068 0.593012 -2.000462 1.161816 -1.581139 1.581139 
C -1.161816 2.000462 -0.593012 2.236068 0 2.236068 
z
"/>
    </defs>
    <g clip-path="url(#p41b26ae08c)">
     <use xlink:href="#C0_0_3f11b00783" x="39.367311" y="164.105062" style="fill: #1b9e77; fill-opacity: 0.3; stroke: #1b9e77; stroke-opacity: 0.3"/>
    </g>
    <g clip-path="url(#p41b26ae08c)">
     <use xlink:href="#C0_0_3f11b00783" x="218.859716" y="164.105062" style="fill: #1b9e77; fill-opacity: 0.3; stroke: #1b9e77; stroke-opacity: 0.3"/>
    </g>
    <g clip-path="url(#p41b26ae08c)">
     <use xlink:href="#C0_0_3f11b00783" x="202.133231" y="173.536305" style="fill: #1b9e77; fill-opacity: 0.426792; stroke: #1b9e77; stroke-opacity: 0.426792"/>
    </g>
    <g clip-path="url(#p41b26ae08c)">
     <use xlink:href="#C0_0_3f11b00783" x="56.093796" y="173.536305" style="fill: #1b9e77; fill-opacity: 0.426792; stroke: #1b9e77; stroke-opacity: 0.426792"/>
    </g>
    <g clip-path="url(#p41b26ae08c)">
     <use xlink:href="#C0_0_3f11b00783" x="37.619009" y="122.886486" style="fill: #1b9e77; fill-opacity: 0.499105; stroke: #1b9e77; stroke-opacity: 0.499105"/>
    </g>
    <g clip-path="url(#p41b26ae08c)">
     <use xlink:href="#C0_0_3f11b00783" x="220.608018" y="122.886486" style="fill: #1b9e77; fill-opacity: 0.499105; stroke: #1b9e77; stroke-opacity: 0.499105"/>
    </g>
    <g clip-path="url(#p41b26ae08c)">
     <use xlink:href="#C0_0_3f11b00783" x="103.347866" y="184.304446" style="fill: #1b9e77; fill-opacity: 0.571558; stroke: #1b9e77; stroke-opacity: 0.571558"/>
    </g>
    <g clip-path="url(#p41b26ae08c)">
     <use xlink:href="#C0_0_3f11b00783" x="154.879161" y="184.304446" style="fill: #1b9e77; fill-opacity: 0.571558; stroke: #1b9e77; stroke-opacity: 0.571558"/>
    </g>
    <g clip-path="url(#p41b26ae08c)">
     <use xlink:href="#C0_0_3f11b00783" x="203.573687" y="131.98236" style="fill: #1b9e77; fill-opacity: 0.630918; stroke: #1b9e77; stroke-opacity: 0.630918"/>
    </g>
    <g clip-path="url(#p41b26ae08c)">
     <use xlink:href="#C0_0_3f11b00783" x="54.65334" y="131.98236" style="fill: #1b9e77; fill-opacity: 0.630918; stroke: #1b9e77; stroke-opacity: 0.630918"/>
    </g>
    <g clip-path="url(#p41b26ae08c)">
     <use xlink:href="#C0_0_3f11b00783" x="35.801237" y="80.030087" style="fill: #1b9e77; fill-opacity: 0.706122; stroke: #1b9e77; stroke-opacity: 0.706122"/>
    </g>
    <g clip-path="url(#p41b26ae08c)">
     <use xlink:href="#C0_0_3f11b00783" x="222.42579" y="80.030087" style="fill: #1b9e77; fill-opacity: 0.706122; stroke: #1b9e77; stroke-opacity: 0.706122"/>
    </g>
    <g clip-path="url(#p41b26ae08c)">
     <use xlink:href="#C0_0_3f11b00783" x="102.832335" y="142.372969" style="fill: #1b9e77; fill-opacity: 0.781493; stroke: #1b9e77; stroke-opacity: 0.781493"/>
    </g>
    <g clip-path="url(#p41b26ae08c)">
     <use xlink:href="#C0_0_3f11b00783" x="155.394692" y="142.372969" style="fill: #1b9e77; fill-opacity: 0.781493; stroke: #1b9e77; stroke-opacity: 0.781493"/>
    </g>
    <g clip-path="url(#p41b26ae08c)">
     <use xlink:href="#C0_0_3f11b00783" x="53.154908" y="88.755957" style="fill: #1b9e77; fill-opacity: 0.843259; stroke: #1b9e77; stroke-opacity: 0.843259"/>
    </g>
    <g clip-path="url(#p41b26ae08c)">
     <use xlink:href="#C0_0_3f11b00783" x="205.072119" y="88.755957" style="fill: #1b9e77; fill-opacity: 0.843259; stroke: #1b9e77; stroke-opacity: 0.843259"/>
    </g>
    <g clip-path="url(#p41b26ae08c)">
     <use xlink:href="#C0_0_3f11b00783" x="155.931274" y="98.729266" style="fill: #1b9e77; stroke: #1b9e77"/>
    </g>
    <g clip-path="url(#p41b26ae08c)">
     <use xlink:href="#C0_0_3f11b00783" x="102.295753" y="98.729266" style="fill: #1b9e77; stroke: #1b9e77"/>
    </g>
   </g>
   <g id="legend_1">
    <g id="patch_8">
     <path d="M 114.185937 48.15625 
L 234.2 48.15625 
Q 236.2 48.15625 236.2 46.15625 
L 236.2 17.8 
Q 236.2 15.8 234.2 15.8 
L 114.185937 15.8 
Q 112.185937 15.8 112.185937 17.8 
L 112.185937 46.15625 
Q 112.185937 48.15625 114.185937 48.15625 
z
" style="fill: #ffffff; opacity: 0.8; stroke: #cccccc; stroke-linejoin: miter"/>
    </g>
    <g id="line2d_22">
     <path d="M 116.185937 23.898438 
L 126.185937 23.898438 
L 136.185937 23.898438 
" style="fill: none; stroke: #1b9e77; stroke-width: 1.5; stroke-linecap: square"/>
     <defs>
      <path id="mad7b0346f8" d="M 0 3 
C 0.795609 3 1.55874 2.683901 2.12132 2.12132 
C 2.683901 1.55874 3 0.795609 3 0 
C 3 -0.795609 2.683901 -1.55874 2.12132 -2.12132 
C 1.55874 -2.683901 0.795609 -3 0 -3 
C -0.795609 -3 -1.55874 -2.683901 -2.12132 -2.12132 
C -2.683901 -1.55874 -3 -0.795609 -3 0 
C -3 0.795609 -2.683901 1.55874 -2.12132 2.12132 
C -1.55874 2.683901 -0.795609 3 0 3 
z
" style="stroke: #1b9e77"/>
     </defs>
     <g>
      <use xlink:href="#mad7b0346f8" x="126.185937" y="23.898438" style="fill: #1b9e77; stroke: #1b9e77"/>
     </g>
    </g>
    <g id="text_6">
     <text style="font: 10px 'DejaVu Sans', 'Bitstream Vera Sans', 'Computer Modern Sans Serif', 'Lucida Grande', 'Verdana', 'Geneva', 'Lucid', 'Arial', 'Helvetica', 'Avant Garde', sans-serif; text-anchor: start" x="144.185937" y="27.398438" transform="rotate(-0 144.185937 27.398438)">Control mesh</text>
    </g>
    <g id="line2d_23">
     <path d="M 116.185937 38.576562 
L 126.185937 38.576562 
L 136.185937 38.576562 
" style="fill: none; stroke: #d95f02; stroke-width: 1.5; stroke-linecap: square"/>
    </g>
    <g id="text_7">
     <text style="font: 10px 'DejaVu Sans', 'Bitstream Vera Sans', 'Computer Modern Sans Serif', 'Lucida Grande', 'Verdana', 'Geneva', 'Lucid', 'Arial', 'Helvetica', 'Avant Garde', sans-serif; text-anchor: start" x="144.185937" y="42.076562" transform="rotate(-0 144.185937 42.076562)">Elements borders</text>
    </g>
   </g>
   <g id="Line3DCollection_5">
    <path d="M 39.367311 164.105062 
L 39.023016 155.987849 
L 38.67607 147.808115 
L 38.32644 139.565137 
L 37.974097 131.258176 
L 37.619009 122.886486 
L 37.261142 114.449307 
L 36.900465 105.945868 
L 36.536945 97.375384 
L 36.170547 88.73706 
L 35.801237 80.030087 
" clip-path="url(#p41b26ae08c)" style="fill: none; stroke: #d95f02; stroke-width: 1.5"/>
    <path d="M 79.556704 178.882975 
L 79.362879 170.66516 
L 79.167531 162.38281 
L 78.970643 154.035162 
L 78.772197 145.621441 
L 78.572174 137.140858 
L 78.370555 128.592614 
L 78.16732 119.975896 
L 77.962452 111.289877 
L 77.755929 102.533718 
L 77.547731 93.706567 
" clip-path="url(#p41b26ae08c)" style="fill: none; stroke: #d95f02; stroke-width: 1.5"/>
    <path d="M 129.113514 184.304446 
L 129.113514 176.050273 
L 129.113514 167.730823 
L 129.113514 159.345317 
L 129.113514 150.892967 
L 129.113514 142.372969 
L 129.113514 133.784509 
L 129.113514 125.126757 
L 129.113514 116.398872 
L 129.113514 107.599998 
L 129.113514 98.729266 
" clip-path="url(#p41b26ae08c)" style="fill: none; stroke: #d95f02; stroke-width: 1.5"/>
    <path d="M 178.670323 178.882975 
L 178.864148 170.66516 
L 179.059496 162.38281 
L 179.256384 154.035162 
L 179.45483 145.621441 
L 179.654853 137.140858 
L 179.856472 128.592614 
L 180.059707 119.975896 
L 180.264575 111.289877 
L 180.471098 102.533718 
L 180.679296 93.706567 
" clip-path="url(#p41b26ae08c)" style="fill: none; stroke: #d95f02; stroke-width: 1.5"/>
    <path d="M 218.859716 164.105062 
L 219.204011 155.987849 
L 219.550957 147.808115 
L 219.900587 139.565137 
L 220.25293 131.258176 
L 220.608018 122.886486 
L 220.965885 114.449307 
L 221.326562 105.945868 
L 221.690082 97.375384 
L 222.05648 88.73706 
L 222.42579 80.030087 
" clip-path="url(#p41b26ae08c)" style="fill: none; stroke: #d95f02; stroke-width: 1.5"/>
   </g>
   <g id="Line3DCollection_6">
    <path d="M 39.367311 164.105062 
L 42.743508 165.931221 
L 46.263424 167.682681 
L 49.926896 169.35835 
L 53.733665 170.957175 
L 57.683374 172.478148 
L 61.775569 173.9203 
L 66.009698 175.282711 
L 70.385113 176.564505 
L 74.901064 177.764852 
L 79.556704 178.882975 
L 84.307762 179.90725 
L 89.109382 180.826005 
L 93.959737 181.63848 
L 98.856948 182.344 
L 103.799093 182.94198 
L 108.784201 183.431919 
L 113.810264 183.813409 
L 118.875232 184.086131 
L 123.977022 184.249856 
L 129.113514 184.304446 
L 134.250005 184.249856 
L 139.351795 184.086131 
L 144.416763 183.813409 
L 149.442826 183.431919 
L 154.427934 182.94198 
L 159.370079 182.344 
L 164.26729 181.63848 
L 169.117645 180.826005 
L 173.919265 179.90725 
L 178.670323 178.882975 
L 183.325963 177.764852 
L 187.841914 176.564505 
L 192.217329 175.282711 
L 196.451458 173.9203 
L 200.543654 172.478148 
L 204.493362 170.957175 
L 208.300131 169.35835 
L 211.963603 167.682681 
L 215.483519 165.931221 
L 218.859716 164.105062 
" clip-path="url(#p41b26ae08c)" style="fill: none; stroke: #d95f02; stroke-width: 1.5"/>
    <path d="M 35.801237 80.030087 
L 39.303015 81.718994 
L 42.955257 83.339119 
L 46.757796 84.889414 
L 50.71036 86.368868 
L 54.812574 87.776512 
L 59.063953 89.111415 
L 63.463909 90.372692 
L 68.011744 91.5595 
L 72.706656 92.671042 
L 77.547731 93.706567 
L 82.488893 94.655285 
L 87.483432 95.506352 
L 92.529373 96.259037 
L 97.624683 96.91269 
L 102.767283 97.466747 
L 107.955041 97.920725 
L 113.185781 98.27423 
L 118.457285 98.526954 
L 123.767294 98.678677 
L 129.113514 98.729266 
L 134.459733 98.678677 
L 139.769742 98.526954 
L 145.041246 98.27423 
L 150.271986 97.920725 
L 155.459744 97.466747 
L 160.602344 96.91269 
L 165.697655 96.259037 
L 170.743595 95.506352 
L 175.738134 94.655285 
L 180.679296 93.706567 
L 185.520371 92.671042 
L 190.215283 91.5595 
L 194.763118 90.372692 
L 199.163074 89.111415 
L 203.414453 87.776512 
L 207.516667 86.368868 
L 211.469231 84.889414 
L 215.27177 83.339119 
L 218.924012 81.718994 
L 222.42579 80.030087 
" clip-path="url(#p41b26ae08c)" style="fill: none; stroke: #d95f02; stroke-width: 1.5"/>
   </g>
  </g>
 </g>
 <defs>
  <clipPath id="p41b26ae08c">
   <rect x="10.8" y="10.8" width="230.4" height="230.4"/>
  </clipPath>
 </defs>
</svg>
