<?xml version="1.0" encoding="utf-8" standalone="no"?>
<!DOCTYPE svg PUBLIC "-//W3C//DTD SVG 1.1//EN"
  "http://www.w3.org/Graphics/SVG/1.1/DTD/svg11.dtd">
<svg xmlns:xlink="http://www.w3.org/1999/xlink" width="288pt" height="162pt" viewBox="0 0 288 162" xmlns="http://www.w3.org/2000/svg" version="1.1">
 <metadata>
  <rdf:RDF xmlns:dc="http://purl.org/dc/elements/1.1/" xmlns:cc="http://creativecommons.org/ns#" xmlns:rdf="http://www.w3.org/1999/02/22-rdf-syntax-ns#">
   <cc:Work>
    <dc:type rdf:resource="http://purl.org/dc/dcmitype/StillImage"/>
    <dc:date>2025-06-27T17:05:50.299684</dc:date>
    <dc:format>image/svg+xml</dc:format>
    <dc:creator>
     <cc:Agent>
      <dc:title>Matplotlib v3.9.4, https://matplotlib.org/</dc:title>
     </cc:Agent>
    </dc:creator>
   </cc:Work>
  </rdf:RDF>
 </metadata>
 <defs>
  <style type="text/css">*{stroke-linejoin: round; stroke-linecap: butt}</style>
 </defs>
 <g id="figure_1">
  <g id="patch_1">
   <path d="M 0 162 
L 288 162 
L 288 0 
L 0 0 
z
" style="fill: #ffffff"/>
  </g>
  <g id="axes_1">
   <g id="patch_2">
    <path d="M 24.19 120.04 
L 184.63 120.04 
L 184.63 10.8 
L 24.19 10.8 
z
" style="fill: #ffffff"/>
   </g>
   <g id="matplotlib.axis_1">
    <g id="xtick_1">
     <g id="line2d_1">
      <defs>
       <path id="m24bb9cfd48" d="M 0 0 
L 0 3.5 
" style="stroke: #000000; stroke-width: 0.8"/>
      </defs>
      <g>
       <use xlink:href="#m24bb9cfd48" x="31.482727" y="120.04" style="stroke: #000000; stroke-width: 0.8"/>
      </g>
     </g>
     <g id="text_1">
      <text style="font: 10px 'DejaVu Sans', 'Bitstream Vera Sans', 'Computer Modern Sans Serif', 'Lucida Grande', 'Verdana', 'Geneva', 'Lucid', 'Arial', 'Helvetica', 'Avant Garde', sans-serif; text-anchor: middle" x="31.482727" y="134.638438" transform="rotate(-0 31.482727 134.638438)">0</text>
     </g>
    </g>
    <g id="xtick_2">
     <g id="line2d_2">
      <g>
       <use xlink:href="#m24bb9cfd48" x="67.946364" y="120.04" style="stroke: #000000; stroke-width: 0.8"/>
      </g>
     </g>
    </g>
    <g id="xtick_3">
     <g id="line2d_3">
      <g>
       <use xlink:href="#m24bb9cfd48" x="104.41" y="120.04" style="stroke: #000000; stroke-width: 0.8"/>
      </g>
     </g>
    </g>
    <g id="xtick_4">
     <g id="line2d_4">
      <g>
       <use xlink:href="#m24bb9cfd48" x="140.873636" y="120.04" style="stroke: #000000; stroke-width: 0.8"/>
      </g>
     </g>
    </g>
    <g id="xtick_5">
     <g id="line2d_5">
      <g>
       <use xlink:href="#m24bb9cfd48" x="177.337273" y="120.04" style="stroke: #000000; stroke-width: 0.8"/>
      </g>
     </g>
     <g id="text_2">
      <text style="font: 10px 'DejaVu Sans', 'Bitstream Vera Sans', 'Computer Modern Sans Serif', 'Lucida Grande', 'Verdana', 'Geneva', 'Lucid', 'Arial', 'Helvetica', 'Avant Garde', sans-serif; text-anchor: middle" x="177.337273" y="134.638438" transform="rotate(-0 177.337273 134.638438)">1</text>
     </g>
    </g>
    <g id="xtick_6">
     <g id="line2d_6"/>
     <g id="text_3">
      <text style="font: 10px 'DejaVu Sans', 'Bitstream Vera Sans', 'Computer Modern Sans Serif', 'Lucida Grande', 'Verdana', 'Geneva', 'Lucid', 'Arial', 'Helvetica', 'Avant Garde', sans-serif; text-anchor: middle" x="49.714545" y="131.038438" transform="rotate(-0 49.714545 131.038438)">$el_0$</text>
     </g>
    </g>
    <g id="xtick_7">
     <g id="line2d_7"/>
     <g id="text_4">
      <text style="font: 10px 'DejaVu Sans', 'Bitstream Vera Sans', 'Computer Modern Sans Serif', 'Lucida Grande', 'Verdana', 'Geneva', 'Lucid', 'Arial', 'Helvetica', 'Avant Garde', sans-serif; text-anchor: middle" x="86.178182" y="131.038438" transform="rotate(-0 86.178182 131.038438)">$el_1$</text>
     </g>
    </g>
    <g id="xtick_8">
     <g id="line2d_8"/>
     <g id="text_5">
      <text style="font: 10px 'DejaVu Sans', 'Bitstream Vera Sans', 'Computer Modern Sans Serif', 'Lucida Grande', 'Verdana', 'Geneva', 'Lucid', 'Arial', 'Helvetica', 'Avant Garde', sans-serif; text-anchor: middle" x="122.641818" y="131.038438" transform="rotate(-0 122.641818 131.038438)">$el_2$</text>
     </g>
    </g>
    <g id="xtick_9">
     <g id="line2d_9"/>
     <g id="text_6">
      <text style="font: 10px 'DejaVu Sans', 'Bitstream Vera Sans', 'Computer Modern Sans Serif', 'Lucida Grande', 'Verdana', 'Geneva', 'Lucid', 'Arial', 'Helvetica', 'Avant Garde', sans-serif; text-anchor: middle" x="159.105455" y="131.038438" transform="rotate(-0 159.105455 131.038438)">$el_3$</text>
     </g>
    </g>
    <g id="text_7">
     <text style="font: 10px 'DejaVu Sans', 'Bitstream Vera Sans', 'Computer Modern Sans Serif', 'Lucida Grande', 'Verdana', 'Geneva', 'Lucid', 'Arial', 'Helvetica', 'Avant Garde', sans-serif; text-anchor: middle" x="104.41" y="148.316563" transform="rotate(-0 104.41 148.316563)">$\xi$</text>
    </g>
   </g>
   <g id="matplotlib.axis_2">
    <g id="ytick_1">
     <g id="line2d_10">
      <defs>
       <path id="m55953e4c7a" d="M 0 0 
L -3.5 0 
" style="stroke: #000000; stroke-width: 0.8"/>
      </defs>
      <g>
       <use xlink:href="#m55953e4c7a" x="24.19" y="115.074545" style="stroke: #000000; stroke-width: 0.8"/>
      </g>
     </g>
     <g id="text_8">
      <text style="font: 10px 'DejaVu Sans', 'Bitstream Vera Sans', 'Computer Modern Sans Serif', 'Lucida Grande', 'Verdana', 'Geneva', 'Lucid', 'Arial', 'Helvetica', 'Avant Garde', sans-serif; text-anchor: end" x="17.19" y="118.873764" transform="rotate(-0 17.19 118.873764)">0</text>
     </g>
    </g>
    <g id="ytick_2">
     <g id="line2d_11">
      <g>
       <use xlink:href="#m55953e4c7a" x="24.19" y="15.765455" style="stroke: #000000; stroke-width: 0.8"/>
      </g>
     </g>
     <g id="text_9">
      <text style="font: 10px 'DejaVu Sans', 'Bitstream Vera Sans', 'Computer Modern Sans Serif', 'Lucida Grande', 'Verdana', 'Geneva', 'Lucid', 'Arial', 'Helvetica', 'Avant Garde', sans-serif; text-anchor: end" x="17.19" y="19.564673" transform="rotate(-0 17.19 19.564673)">1</text>
     </g>
    </g>
   </g>
   <g id="line2d_12">
    <path d="M 31.482727 15.765455 
L 31.851047 17.761566 
L 32.219366 19.737413 
L 32.587686 21.692994 
L 32.956006 23.628311 
L 33.324325 25.543362 
L 33.692645 27.438148 
L 34.060964 29.31267 
L 34.429284 31.166926 
L 34.797603 33.000917 
L 35.165923 34.814642 
L 35.534242 36.608103 
L 35.902562 38.381299 
L 36.270882 40.13423 
L 36.639201 41.866895 
L 37.007521 43.579295 
L 37.37584 45.271431 
L 37.74416 46.943301 
L 38.112479 48.594906 
L 38.480799 50.226246 
L 38.849118 51.837321 
L 39.217438 53.428131 
L 39.585758 54.998676 
L 39.954077 56.548955 
L 40.322397 58.07897 
L 40.690716 59.588719 
L 41.059036 61.078204 
L 41.427355 62.547423 
L 41.795675 63.996377 
L 42.163994 65.425066 
L 42.532314 66.83349 
L 42.900634 68.221649 
L 43.268953 69.589543 
L 43.637273 70.937172 
L 44.005592 72.264535 
L 44.373912 73.571634 
L 44.742231 74.858467 
L 45.110551 76.125036 
L 45.478871 77.371339 
L 45.84719 78.597377 
L 46.21551 79.80315 
L 46.583829 80.988658 
L 46.952149 82.153901 
L 47.320468 83.298879 
L 47.688788 84.423591 
L 48.057107 85.528039 
L 48.425427 86.612222 
L 48.793747 87.676139 
L 49.162066 88.719791 
L 49.530386 89.743179 
L 49.898705 90.746301 
L 50.267025 91.729158 
L 50.635344 92.69175 
L 51.003664 93.634076 
L 51.371983 94.556138 
L 51.740303 95.457935 
L 52.108623 96.339466 
L 52.476942 97.200733 
L 52.845262 98.041734 
L 53.213581 98.862471 
L 53.581901 99.662942 
L 53.95022 100.443148 
L 54.31854 101.203089 
L 54.68686 101.942765 
L 55.055179 102.662176 
L 55.423499 103.361321 
L 55.791818 104.040202 
L 56.160138 104.698818 
L 56.528457 105.337168 
L 56.896777 105.955253 
L 57.265096 106.553074 
L 57.633416 107.130629 
L 58.001736 107.687919 
L 58.370055 108.224944 
L 58.738375 108.741704 
L 59.106694 109.238199 
L 59.475014 109.714428 
L 59.843333 110.170393 
L 60.211653 110.606092 
L 60.579972 111.021527 
L 60.948292 111.416696 
L 61.316612 111.7916 
L 61.684931 112.146239 
L 62.053251 112.480613 
L 62.42157 112.794722 
L 62.78989 113.088566 
L 63.158209 113.362145 
L 63.526529 113.615459 
L 63.894848 113.848507 
L 64.263168 114.061291 
L 64.631488 114.253809 
L 64.999807 114.426062 
L 65.368127 114.578051 
L 65.736446 114.709774 
L 66.104766 114.821232 
L 66.473085 114.912425 
L 66.841405 114.983353 
L 67.209725 115.034015 
L 67.578044 115.064413 
L 67.946364 115.074545 
" clip-path="url(#p78383e1afc)" style="fill: none; stroke: #1f77b4; stroke-width: 1.5; stroke-linecap: square"/>
   </g>
   <g id="line2d_13">
    <path d="M 31.482727 115.074545 
L 33.692645 103.584237 
L 35.902562 93.188244 
L 38.112479 83.886566 
L 39.954077 76.971103 
L 41.795675 70.815581 
L 43.637273 65.42 
L 45.478871 60.78436 
L 46.952149 57.623005 
L 48.425427 54.948013 
L 49.898705 52.759383 
L 51.003664 51.437085 
L 52.108623 50.388367 
L 53.213581 49.613227 
L 54.31854 49.111666 
L 55.423499 48.883684 
L 56.528457 48.92928 
L 57.633416 49.248455 
L 58.738375 49.841209 
L 59.843333 50.707542 
L 60.948292 51.847454 
L 62.053251 53.260944 
L 63.526529 55.571165 
L 64.999807 58.367747 
L 66.473085 61.650693 
L 68.314683 66.418056 
L 71.26124 74.037731 
L 74.207796 81.008923 
L 76.786033 86.576758 
L 79.36427 91.648097 
L 81.942507 96.222942 
L 84.520744 100.301292 
L 86.730661 103.401852 
L 88.940579 106.137639 
L 91.150496 108.508655 
L 93.360413 110.514899 
L 95.202011 111.908125 
L 97.043609 113.048036 
L 98.885207 113.934634 
L 100.726804 114.567918 
L 102.568402 114.947889 
L 104.41 115.074545 
L 104.41 115.074545 
" clip-path="url(#p78383e1afc)" style="fill: none; stroke-dasharray: 9,3; stroke-dashoffset: 0; stroke: #ff7f0e; stroke-width: 1.5"/>
   </g>
   <g id="line2d_14">
    <path d="M 31.482727 115.074545 
L 33.324325 114.947889 
L 35.165923 114.567918 
L 37.007521 113.934634 
L 38.849118 113.048036 
L 40.690716 111.908125 
L 42.532314 110.514899 
L 44.373912 108.868361 
L 46.583829 106.55814 
L 48.793747 103.883148 
L 51.003664 100.843384 
L 53.213581 97.438848 
L 55.791818 93.005859 
L 58.370055 88.076375 
L 60.948292 82.650396 
L 63.526529 76.727922 
L 66.473085 69.351428 
L 70.89292 58.043506 
L 72.734518 54.091813 
L 74.576116 50.646747 
L 76.417713 47.708308 
L 77.890992 45.722329 
L 79.36427 44.060591 
L 80.837548 42.723095 
L 82.310826 41.709841 
L 83.784105 41.020827 
L 84.889063 40.716851 
L 85.994022 40.59526 
L 87.098981 40.656056 
L 88.203939 40.899237 
L 89.308898 41.324804 
L 90.782176 42.175938 
L 92.255455 43.351313 
L 93.728733 44.85093 
L 95.202011 46.674788 
L 96.675289 48.822888 
L 98.516887 51.963978 
L 100.358485 55.611695 
L 102.200083 59.766039 
L 104.04168 64.42701 
L 107.724876 74.037731 
L 110.671433 81.008923 
L 113.249669 86.576758 
L 115.827906 91.648097 
L 118.406143 96.222942 
L 120.98438 100.301292 
L 123.194298 103.401852 
L 125.404215 106.137639 
L 127.614132 108.508655 
L 129.82405 110.514899 
L 131.665647 111.908125 
L 133.507245 113.048036 
L 135.348843 113.934634 
L 137.190441 114.567918 
L 139.032039 114.947889 
L 140.873636 115.074545 
L 140.873636 115.074545 
" clip-path="url(#p78383e1afc)" style="fill: none; stroke-dasharray: 4.5,1.5; stroke-dashoffset: 0; stroke: #2ca02c; stroke-width: 1.5"/>
   </g>
   <g id="line2d_15">
    <path d="M 67.946364 115.074545 
L 69.787961 114.947889 
L 71.629559 114.567918 
L 73.471157 113.934634 
L 75.312755 113.048036 
L 77.154353 111.908125 
L 78.99595 110.514899 
L 80.837548 108.868361 
L 83.047466 106.55814 
L 85.257383 103.883148 
L 87.4673 100.843384 
L 89.677218 97.438848 
L 92.255455 93.005859 
L 94.833691 88.076375 
L 97.411928 82.650396 
L 99.990165 76.727922 
L 102.936722 69.351428 
L 107.356556 58.043506 
L 109.198154 54.091813 
L 111.039752 50.646747 
L 112.88135 47.708308 
L 114.354628 45.722329 
L 115.827906 44.060591 
L 117.301185 42.723095 
L 118.774463 41.709841 
L 120.247741 41.020827 
L 121.3527 40.716851 
L 122.457658 40.59526 
L 123.562617 40.656056 
L 124.667576 40.899237 
L 125.772534 41.324804 
L 127.245813 42.175938 
L 128.719091 43.351313 
L 130.192369 44.85093 
L 131.665647 46.674788 
L 133.138926 48.822888 
L 134.980523 51.963978 
L 136.822121 55.611695 
L 138.663719 59.766039 
L 140.505317 64.42701 
L 144.188512 74.037731 
L 147.135069 81.008923 
L 149.713306 86.576758 
L 152.291543 91.648097 
L 154.86978 96.222942 
L 157.448017 100.301292 
L 159.657934 103.401852 
L 161.867851 106.137639 
L 164.077769 108.508655 
L 166.287686 110.514899 
L 168.129284 111.908125 
L 169.970882 113.048036 
L 171.812479 113.934634 
L 173.654077 114.567918 
L 175.495675 114.947889 
L 177.337273 115.074545 
L 177.337273 115.074545 
" clip-path="url(#p78383e1afc)" style="fill: none; stroke-dasharray: 1.5,1.5; stroke-dashoffset: 0; stroke: #d62728; stroke-width: 1.5"/>
   </g>
   <g id="line2d_16">
    <path d="M 104.41 115.074545 
L 106.251598 114.947889 
L 108.093196 114.567918 
L 109.934793 113.934634 
L 111.776391 113.048036 
L 113.617989 111.908125 
L 115.459587 110.514899 
L 117.301185 108.868361 
L 119.511102 106.55814 
L 121.721019 103.883148 
L 123.930937 100.843384 
L 126.140854 97.438848 
L 128.719091 93.005859 
L 131.297328 88.076375 
L 133.875565 82.650396 
L 136.453802 76.727922 
L 139.400358 69.351428 
L 143.083554 59.948425 
L 144.556832 56.908661 
L 146.03011 54.355259 
L 147.503388 52.288219 
L 148.608347 51.057115 
L 149.713306 50.099589 
L 150.818264 49.415642 
L 151.923223 49.005274 
L 153.028182 48.868485 
L 154.13314 49.005274 
L 155.238099 49.415642 
L 156.343058 50.099589 
L 157.448017 51.057115 
L 158.552975 52.288219 
L 159.657934 53.792903 
L 161.131212 56.224714 
L 162.60449 59.142887 
L 164.077769 62.547423 
L 165.551047 66.438321 
L 167.392645 71.98589 
L 169.234242 78.293401 
L 171.07584 85.360852 
L 173.285758 94.844916 
L 175.495675 105.423295 
L 177.337273 115.074545 
L 177.337273 115.074545 
" clip-path="url(#p78383e1afc)" style="fill: none; stroke-dasharray: 9,3,1.5,3; stroke-dashoffset: 0; stroke: #9467bd; stroke-width: 1.5"/>
   </g>
   <g id="line2d_17">
    <path d="M 140.873636 115.074545 
L 141.241956 115.064413 
L 141.610275 115.034015 
L 141.978595 114.983353 
L 142.346915 114.912425 
L 142.715234 114.821232 
L 143.083554 114.709774 
L 143.451873 114.578051 
L 143.820193 114.426062 
L 144.188512 114.253809 
L 144.556832 114.061291 
L 144.925152 113.848507 
L 145.293471 113.615459 
L 145.661791 113.362145 
L 146.03011 113.088566 
L 146.39843 112.794722 
L 146.766749 112.480613 
L 147.135069 112.146239 
L 147.503388 111.7916 
L 147.871708 111.416696 
L 148.240028 111.021527 
L 148.608347 110.606092 
L 148.976667 110.170393 
L 149.344986 109.714428 
L 149.713306 109.238199 
L 150.081625 108.741704 
L 150.449945 108.224944 
L 150.818264 107.687919 
L 151.186584 107.130629 
L 151.554904 106.553074 
L 151.923223 105.955253 
L 152.291543 105.337168 
L 152.659862 104.698818 
L 153.028182 104.040202 
L 153.396501 103.361321 
L 153.764821 102.662176 
L 154.13314 101.942765 
L 154.50146 101.203089 
L 154.86978 100.443148 
L 155.238099 99.662942 
L 155.606419 98.862471 
L 155.974738 98.041734 
L 156.343058 97.200733 
L 156.711377 96.339466 
L 157.079697 95.457935 
L 157.448017 94.556138 
L 157.816336 93.634076 
L 158.184656 92.69175 
L 158.552975 91.729158 
L 158.921295 90.746301 
L 159.289614 89.743179 
L 159.657934 88.719791 
L 160.026253 87.676139 
L 160.394573 86.612222 
L 160.762893 85.528039 
L 161.131212 84.423591 
L 161.499532 83.298879 
L 161.867851 82.153901 
L 162.236171 80.988658 
L 162.60449 79.80315 
L 162.97281 78.597377 
L 163.341129 77.371339 
L 163.709449 76.125036 
L 164.077769 74.858467 
L 164.446088 73.571634 
L 164.814408 72.264535 
L 165.182727 70.937172 
L 165.551047 69.589543 
L 165.919366 68.221649 
L 166.287686 66.83349 
L 166.656006 65.425066 
L 167.024325 63.996377 
L 167.392645 62.547423 
L 167.760964 61.078204 
L 168.129284 59.588719 
L 168.497603 58.07897 
L 168.865923 56.548955 
L 169.234242 54.998676 
L 169.602562 53.428131 
L 169.970882 51.837321 
L 170.339201 50.226246 
L 170.707521 48.594906 
L 171.07584 46.943301 
L 171.44416 45.271431 
L 171.812479 43.579295 
L 172.180799 41.866895 
L 172.549118 40.13423 
L 172.917438 38.381299 
L 173.285758 36.608103 
L 173.654077 34.814642 
L 174.022397 33.000917 
L 174.390716 31.166926 
L 174.759036 29.31267 
L 175.127355 27.438148 
L 175.495675 25.543362 
L 175.863994 23.628311 
L 176.232314 21.692994 
L 176.600634 19.737413 
L 176.968953 17.761566 
L 177.337273 15.765455 
" clip-path="url(#p78383e1afc)" style="fill: none; stroke-dasharray: 4.5,1.5,1.5,1.5; stroke-dashoffset: 0; stroke: #8c564b; stroke-width: 1.5"/>
   </g>
   <g id="patch_3">
    <path d="M 24.19 120.04 
L 24.19 10.8 
" style="fill: none; stroke: #000000; stroke-width: 0.8; stroke-linejoin: miter; stroke-linecap: square"/>
   </g>
   <g id="patch_4">
    <path d="M 184.63 120.04 
L 184.63 10.8 
" style="fill: none; stroke: #000000; stroke-width: 0.8; stroke-linejoin: miter; stroke-linecap: square"/>
   </g>
   <g id="patch_5">
    <path d="M 24.19 120.04 
L 184.63 120.04 
" style="fill: none; stroke: #000000; stroke-width: 0.8; stroke-linejoin: miter; stroke-linecap: square"/>
   </g>
   <g id="patch_6">
    <path d="M 24.19 10.8 
L 184.63 10.8 
" style="fill: none; stroke: #000000; stroke-width: 0.8; stroke-linejoin: miter; stroke-linecap: square"/>
   </g>
   <g id="legend_1">
    <g id="patch_7">
     <path d="M 191.63 108.5375 
L 275.0675 108.5375 
Q 277.0675 108.5375 277.0675 106.5375 
L 277.0675 17.8 
Q 277.0675 15.8 275.0675 15.8 
L 191.63 15.8 
Q 189.63 15.8 189.63 17.8 
L 189.63 106.5375 
Q 189.63 108.5375 191.63 108.5375 
z
" style="fill: #ffffff; opacity: 0.8; stroke: #cccccc; stroke-linejoin: miter"/>
    </g>
    <g id="line2d_18">
     <path d="M 193.63 23.898438 
L 203.63 23.898438 
L 213.63 23.898438 
" style="fill: none; stroke: #1f77b4; stroke-width: 1.5; stroke-linecap: square"/>
    </g>
    <g id="text_10">
     <text style="font: 10px 'DejaVu Sans', 'Bitstream Vera Sans', 'Computer Modern Sans Serif', 'Lucida Grande', 'Verdana', 'Geneva', 'Lucid', 'Arial', 'Helvetica', 'Avant Garde', sans-serif; text-anchor: start" x="221.63" y="27.398438" transform="rotate(-0 221.63 27.398438)">$N_0(\xi)$</text>
    </g>
    <g id="line2d_19">
     <path d="M 193.63 38.854687 
L 203.63 38.854687 
L 213.63 38.854687 
" style="fill: none; stroke-dasharray: 9,3; stroke-dashoffset: 0; stroke: #ff7f0e; stroke-width: 1.5"/>
    </g>
    <g id="text_11">
     <text style="font: 10px 'DejaVu Sans', 'Bitstream Vera Sans', 'Computer Modern Sans Serif', 'Lucida Grande', 'Verdana', 'Geneva', 'Lucid', 'Arial', 'Helvetica', 'Avant Garde', sans-serif; text-anchor: start" x="221.63" y="42.354687" transform="rotate(-0 221.63 42.354687)">$N_1(\xi)$</text>
    </g>
    <g id="line2d_20">
     <path d="M 193.63 53.810937 
L 203.63 53.810937 
L 213.63 53.810937 
" style="fill: none; stroke-dasharray: 4.5,1.5; stroke-dashoffset: 0; stroke: #2ca02c; stroke-width: 1.5"/>
    </g>
    <g id="text_12">
     <text style="font: 10px 'DejaVu Sans', 'Bitstream Vera Sans', 'Computer Modern Sans Serif', 'Lucida Grande', 'Verdana', 'Geneva', 'Lucid', 'Arial', 'Helvetica', 'Avant Garde', sans-serif; text-anchor: start" x="221.63" y="57.310937" transform="rotate(-0 221.63 57.310937)">$N_2(\xi)$</text>
    </g>
    <g id="line2d_21">
     <path d="M 193.63 68.767188 
L 203.63 68.767188 
L 213.63 68.767188 
" style="fill: none; stroke-dasharray: 1.5,1.5; stroke-dashoffset: 0; stroke: #d62728; stroke-width: 1.5"/>
    </g>
    <g id="text_13">
     <text style="font: 10px 'DejaVu Sans', 'Bitstream Vera Sans', 'Computer Modern Sans Serif', 'Lucida Grande', 'Verdana', 'Geneva', 'Lucid', 'Arial', 'Helvetica', 'Avant Garde', sans-serif; text-anchor: start" x="221.63" y="72.267188" transform="rotate(-0 221.63 72.267188)">$N_3(\xi)$</text>
    </g>
    <g id="line2d_22">
     <path d="M 193.63 83.723438 
L 203.63 83.723438 
L 213.63 83.723438 
" style="fill: none; stroke-dasharray: 9,3,1.5,3; stroke-dashoffset: 0; stroke: #9467bd; stroke-width: 1.5"/>
    </g>
    <g id="text_14">
     <text style="font: 10px 'DejaVu Sans', 'Bitstream Vera Sans', 'Computer Modern Sans Serif', 'Lucida Grande', 'Verdana', 'Geneva', 'Lucid', 'Arial', 'Helvetica', 'Avant Garde', sans-serif; text-anchor: start" x="221.63" y="87.223438" transform="rotate(-0 221.63 87.223438)">$N_4(\xi)$</text>
    </g>
    <g id="line2d_23">
     <path d="M 193.63 98.679688 
L 203.63 98.679688 
L 213.63 98.679688 
" style="fill: none; stroke-dasharray: 4.5,1.5,1.5,1.5; stroke-dashoffset: 0; stroke: #8c564b; stroke-width: 1.5"/>
    </g>
    <g id="text_15">
     <text style="font: 10px 'DejaVu Sans', 'Bitstream Vera Sans', 'Computer Modern Sans Serif', 'Lucida Grande', 'Verdana', 'Geneva', 'Lucid', 'Arial', 'Helvetica', 'Avant Garde', sans-serif; text-anchor: start" x="221.63" y="102.179688" transform="rotate(-0 221.63 102.179688)">$N_5(\xi)$</text>
    </g>
   </g>
  </g>
 </g>
 <defs>
  <clipPath id="p78383e1afc">
   <rect x="24.19" y="10.8" width="160.44" height="109.24"/>
  </clipPath>
 </defs>
</svg>
