<?xml version="1.0" encoding="utf-8" standalone="no"?>
<!DOCTYPE svg PUBLIC "-//W3C//DTD SVG 1.1//EN"
  "http://www.w3.org/Graphics/SVG/1.1/DTD/svg11.dtd">
<svg xmlns:xlink="http://www.w3.org/1999/xlink" width="288pt" height="162pt" viewBox="0 0 288 162" xmlns="http://www.w3.org/2000/svg" version="1.1">
 <metadata>
  <rdf:RDF xmlns:dc="http://purl.org/dc/elements/1.1/" xmlns:cc="http://creativecommons.org/ns#" xmlns:rdf="http://www.w3.org/1999/02/22-rdf-syntax-ns#">
   <cc:Work>
    <dc:type rdf:resource="http://purl.org/dc/dcmitype/StillImage"/>
    <dc:date>2026-02-05T11:28:00.192941</dc:date>
    <dc:format>image/svg+xml</dc:format>
    <dc:creator>
     <cc:Agent>
      <dc:title>Matplotlib v3.9.4, https://matplotlib.org/</dc:title>
     </cc:Agent>
    </dc:creator>
   </cc:Work>
  </rdf:RDF>
 </metadata>
 <defs>
  <style type="text/css">*{stroke-linejoin: round; stroke-linecap: butt}</style>
 </defs>
 <g id="figure_1">
  <g id="patch_1">
   <path d="M 0 162 
L 288 162 
L 288 0 
L 0 0 
z
" style="fill: #ffffff"/>
  </g>
  <g id="axes_1">
   <g id="patch_2">
    <path d="M 24.19 120.04 
L 184.63 120.04 
L 184.63 18.09 
L 24.19 18.09 
z
" style="fill: #ffffff"/>
   </g>
   <g id="matplotlib.axis_1">
    <g id="xtick_1">
     <g id="line2d_1">
      <defs>
       <path id="m36e3958608" d="M 0 0 
L 0 3.5 
" style="stroke: #000000; stroke-width: 0.8"/>
      </defs>
      <g>
       <use xlink:href="#m36e3958608" x="31.482727" y="120.04" style="stroke: #000000; stroke-width: 0.8"/>
      </g>
     </g>
     <g id="text_1">
      <text style="font: 10px 'DejaVu Sans', 'Bitstream Vera Sans', 'Computer Modern Sans Serif', 'Lucida Grande', 'Verdana', 'Geneva', 'Lucid', 'Arial', 'Helvetica', 'Avant Garde', sans-serif; text-anchor: middle" x="31.482727" y="134.638438" transform="rotate(-0 31.482727 134.638438)">0</text>
     </g>
    </g>
    <g id="xtick_2">
     <g id="line2d_2">
      <g>
       <use xlink:href="#m36e3958608" x="67.946364" y="120.04" style="stroke: #000000; stroke-width: 0.8"/>
      </g>
     </g>
    </g>
    <g id="xtick_3">
     <g id="line2d_3">
      <g>
       <use xlink:href="#m36e3958608" x="104.41" y="120.04" style="stroke: #000000; stroke-width: 0.8"/>
      </g>
     </g>
    </g>
    <g id="xtick_4">
     <g id="line2d_4">
      <g>
       <use xlink:href="#m36e3958608" x="140.873636" y="120.04" style="stroke: #000000; stroke-width: 0.8"/>
      </g>
     </g>
    </g>
    <g id="xtick_5">
     <g id="line2d_5">
      <g>
       <use xlink:href="#m36e3958608" x="177.337273" y="120.04" style="stroke: #000000; stroke-width: 0.8"/>
      </g>
     </g>
     <g id="text_2">
      <text style="font: 10px 'DejaVu Sans', 'Bitstream Vera Sans', 'Computer Modern Sans Serif', 'Lucida Grande', 'Verdana', 'Geneva', 'Lucid', 'Arial', 'Helvetica', 'Avant Garde', sans-serif; text-anchor: middle" x="177.337273" y="134.638438" transform="rotate(-0 177.337273 134.638438)">1</text>
     </g>
    </g>
    <g id="xtick_6">
     <g id="line2d_6"/>
     <g id="text_3">
      <text style="font: 10px 'DejaVu Sans', 'Bitstream Vera Sans', 'Computer Modern Sans Serif', 'Lucida Grande', 'Verdana', 'Geneva', 'Lucid', 'Arial', 'Helvetica', 'Avant Garde', sans-serif; text-anchor: middle" x="49.714545" y="131.038438" transform="rotate(-0 49.714545 131.038438)">$el_0$</text>
     </g>
    </g>
    <g id="xtick_7">
     <g id="line2d_7"/>
     <g id="text_4">
      <text style="font: 10px 'DejaVu Sans', 'Bitstream Vera Sans', 'Computer Modern Sans Serif', 'Lucida Grande', 'Verdana', 'Geneva', 'Lucid', 'Arial', 'Helvetica', 'Avant Garde', sans-serif; text-anchor: middle" x="86.178182" y="131.038438" transform="rotate(-0 86.178182 131.038438)">$el_1$</text>
     </g>
    </g>
    <g id="xtick_8">
     <g id="line2d_8"/>
     <g id="text_5">
      <text style="font: 10px 'DejaVu Sans', 'Bitstream Vera Sans', 'Computer Modern Sans Serif', 'Lucida Grande', 'Verdana', 'Geneva', 'Lucid', 'Arial', 'Helvetica', 'Avant Garde', sans-serif; text-anchor: middle" x="122.641818" y="131.038438" transform="rotate(-0 122.641818 131.038438)">$el_2$</text>
     </g>
    </g>
    <g id="xtick_9">
     <g id="line2d_9"/>
     <g id="text_6">
      <text style="font: 10px 'DejaVu Sans', 'Bitstream Vera Sans', 'Computer Modern Sans Serif', 'Lucida Grande', 'Verdana', 'Geneva', 'Lucid', 'Arial', 'Helvetica', 'Avant Garde', sans-serif; text-anchor: middle" x="159.105455" y="131.038438" transform="rotate(-0 159.105455 131.038438)">$el_3$</text>
     </g>
    </g>
    <g id="text_7">
     <text style="font: 10px 'DejaVu Sans', 'Bitstream Vera Sans', 'Computer Modern Sans Serif', 'Lucida Grande', 'Verdana', 'Geneva', 'Lucid', 'Arial', 'Helvetica', 'Avant Garde', sans-serif; text-anchor: middle" x="104.41" y="148.316563" transform="rotate(-0 104.41 148.316563)">$\xi$</text>
    </g>
   </g>
   <g id="matplotlib.axis_2">
    <g id="ytick_1">
     <g id="line2d_10">
      <defs>
       <path id="m350a6da5c4" d="M 0 0 
L -3.5 0 
" style="stroke: #000000; stroke-width: 0.8"/>
      </defs>
      <g>
       <use xlink:href="#m350a6da5c4" x="24.19" y="115.82719" style="stroke: #000000; stroke-width: 0.8"/>
      </g>
     </g>
     <g id="text_8">
      <text style="font: 10px 'DejaVu Sans', 'Bitstream Vera Sans', 'Computer Modern Sans Serif', 'Lucida Grande', 'Verdana', 'Geneva', 'Lucid', 'Arial', 'Helvetica', 'Avant Garde', sans-serif; text-anchor: end" x="17.19" y="119.626409" transform="rotate(-0 17.19 119.626409)">0</text>
     </g>
    </g>
    <g id="ytick_2">
     <g id="line2d_11">
      <g>
       <use xlink:href="#m350a6da5c4" x="24.19" y="31.570992" style="stroke: #000000; stroke-width: 0.8"/>
      </g>
     </g>
     <g id="text_9">
      <text style="font: 10px 'DejaVu Sans', 'Bitstream Vera Sans', 'Computer Modern Sans Serif', 'Lucida Grande', 'Verdana', 'Geneva', 'Lucid', 'Arial', 'Helvetica', 'Avant Garde', sans-serif; text-anchor: end" x="17.19" y="35.37021" transform="rotate(-0 17.19 35.37021)">1</text>
     </g>
    </g>
   </g>
   <g id="line2d_12">
    <path d="M 31.482727 31.570992 
L 31.851047 33.26454 
L 32.219366 34.940896 
L 32.587686 36.600058 
L 32.956006 38.242026 
L 33.324325 39.866801 
L 33.692645 41.474383 
L 34.060964 43.064772 
L 34.429284 44.637967 
L 34.797603 46.193968 
L 35.165923 47.732777 
L 35.534242 49.254391 
L 35.902562 50.758813 
L 36.270882 52.246041 
L 36.639201 53.716076 
L 37.007521 55.168917 
L 37.37584 56.604565 
L 37.74416 58.023019 
L 38.112479 59.42428 
L 38.480799 60.808348 
L 38.849118 62.175223 
L 39.217438 63.524904 
L 39.585758 64.857391 
L 39.954077 66.172685 
L 40.322397 67.470786 
L 40.690716 68.751693 
L 41.059036 70.015408 
L 41.427355 71.261928 
L 41.795675 72.491255 
L 42.163994 73.703389 
L 42.532314 74.89833 
L 42.900634 76.076077 
L 43.268953 77.236631 
L 43.637273 78.379991 
L 44.005592 79.506158 
L 44.373912 80.615131 
L 44.742231 81.706911 
L 45.110551 82.781498 
L 45.478871 83.838892 
L 45.84719 84.879092 
L 46.21551 85.902098 
L 46.583829 86.907911 
L 46.952149 87.896531 
L 47.320468 88.867958 
L 47.688788 89.822191 
L 48.057107 90.75923 
L 48.425427 91.679077 
L 48.793747 92.581729 
L 49.162066 93.467189 
L 49.530386 94.335455 
L 49.898705 95.186528 
L 50.267025 96.020407 
L 50.635344 96.837093 
L 51.003664 97.636585 
L 51.371983 98.418885 
L 51.740303 99.18399 
L 52.108623 99.931903 
L 52.476942 100.662622 
L 52.845262 101.376147 
L 53.213581 102.07248 
L 53.581901 102.751618 
L 53.95022 103.413564 
L 54.31854 104.058316 
L 54.68686 104.685875 
L 55.055179 105.29624 
L 55.423499 105.889412 
L 55.791818 106.46539 
L 56.160138 107.024175 
L 56.528457 107.565767 
L 56.896777 108.090165 
L 57.265096 108.59737 
L 57.633416 109.087382 
L 58.001736 109.5602 
L 58.370055 110.015825 
L 58.738375 110.454256 
L 59.106694 110.875494 
L 59.475014 111.279539 
L 59.843333 111.66639 
L 60.211653 112.036048 
L 60.579972 112.388512 
L 60.948292 112.723784 
L 61.316612 113.041861 
L 61.684931 113.342746 
L 62.053251 113.626436 
L 62.42157 113.892934 
L 62.78989 114.142238 
L 63.158209 114.374349 
L 63.526529 114.589266 
L 63.894848 114.78699 
L 64.263168 114.967521 
L 64.631488 115.130858 
L 64.999807 115.277002 
L 65.368127 115.405952 
L 65.736446 115.517709 
L 66.104766 115.612273 
L 66.473085 115.689643 
L 66.841405 115.74982 
L 67.209725 115.792803 
L 67.578044 115.818593 
L 67.946364 115.82719 
" clip-path="url(#p600c5c1aff)" style="fill: none; stroke: #1f77b4; stroke-width: 1.5; stroke-linecap: square"/>
   </g>
   <g id="line2d_13">
    <path d="M 31.482727 115.82719 
L 33.692645 106.078539 
L 35.902562 97.258331 
L 38.112479 89.366566 
L 39.954077 83.499322 
L 41.795675 78.27683 
L 43.637273 73.699091 
L 45.478871 69.766103 
L 46.952149 67.083935 
L 48.425427 64.814408 
L 49.898705 62.957522 
L 51.371983 61.513277 
L 52.476942 60.70089 
L 53.581901 60.120613 
L 54.68686 59.772447 
L 55.791818 59.656391 
L 56.896777 59.772447 
L 58.001736 60.120613 
L 59.106694 60.70089 
L 60.211653 61.513277 
L 61.316612 62.557775 
L 62.78989 64.311501 
L 64.263168 66.477868 
L 65.736446 69.056876 
L 67.209725 72.048526 
L 72.734518 84.036615 
L 75.681074 89.676047 
L 78.259311 94.159223 
L 80.837548 98.221161 
L 83.415785 101.861861 
L 85.994022 105.081323 
L 88.203939 107.50559 
L 90.413857 109.620377 
L 92.623774 111.425683 
L 94.833691 112.921507 
L 97.043609 114.107851 
L 98.885207 114.860062 
L 100.726804 115.397355 
L 102.568402 115.719731 
L 104.41 115.82719 
L 104.41 115.82719 
" clip-path="url(#p600c5c1aff)" style="fill: none; stroke-dasharray: 9,3; stroke-dashoffset: 0; stroke: #ff7f0e; stroke-width: 1.5"/>
   </g>
   <g id="line2d_14">
    <path d="M 31.482727 115.82719 
L 33.324325 115.719731 
L 35.165923 115.397355 
L 37.007521 114.860062 
L 38.849118 114.107851 
L 40.690716 113.140723 
L 42.900634 111.696479 
L 45.110551 109.942753 
L 47.320468 107.879546 
L 49.530386 105.506859 
L 51.740303 102.82469 
L 54.31854 99.304344 
L 56.896777 95.36276 
L 59.475014 90.999938 
L 62.053251 86.215877 
L 64.999807 80.232578 
L 67.946364 73.699091 
L 70.156281 68.902136 
L 71.997879 65.377491 
L 73.839477 62.282681 
L 75.681074 59.617706 
L 77.522672 57.382566 
L 78.99595 55.903934 
L 80.469229 54.700397 
L 81.942507 53.771954 
L 83.415785 53.118605 
L 84.889063 52.740351 
L 86.362342 52.63719 
L 87.83562 52.809124 
L 89.308898 53.256152 
L 90.782176 53.978275 
L 92.255455 54.975491 
L 93.728733 56.247802 
L 95.202011 57.795207 
L 96.675289 59.617706 
L 98.516887 62.282681 
L 100.358485 65.377491 
L 102.200083 68.902136 
L 104.04168 72.856615 
L 107.724876 81.010579 
L 110.671433 86.925105 
L 113.249669 91.648988 
L 115.827906 95.951633 
L 118.406143 99.833041 
L 120.98438 103.29321 
L 123.194298 105.923799 
L 125.404215 108.244906 
L 127.614132 110.256532 
L 129.82405 111.958678 
L 132.033967 113.351342 
L 133.875565 114.275487 
L 135.717163 114.984714 
L 137.55876 115.479024 
L 139.400358 115.758417 
L 140.873636 115.82719 
L 140.873636 115.82719 
" clip-path="url(#p600c5c1aff)" style="fill: none; stroke-dasharray: 4.5,1.5; stroke-dashoffset: 0; stroke: #2ca02c; stroke-width: 1.5"/>
   </g>
   <g id="line2d_15">
    <path d="M 67.946364 115.82719 
L 69.787961 115.719731 
L 71.629559 115.397355 
L 73.471157 114.860062 
L 75.312755 114.107851 
L 77.154353 113.140723 
L 79.36427 111.696479 
L 81.574187 109.942753 
L 83.784105 107.879546 
L 85.994022 105.506859 
L 88.203939 102.82469 
L 90.782176 99.304344 
L 93.360413 95.36276 
L 95.93865 90.999938 
L 98.516887 86.215877 
L 101.463444 80.232578 
L 104.41 73.699091 
L 106.619917 68.902136 
L 108.461515 65.377491 
L 110.303113 62.282681 
L 112.144711 59.617706 
L 113.986309 57.382566 
L 115.459587 55.903934 
L 116.932865 54.700397 
L 118.406143 53.771954 
L 119.879421 53.118605 
L 121.3527 52.740351 
L 122.825978 52.63719 
L 124.299256 52.809124 
L 125.772534 53.256152 
L 127.245813 53.978275 
L 128.719091 54.975491 
L 130.192369 56.247802 
L 131.665647 57.795207 
L 133.138926 59.617706 
L 134.980523 62.282681 
L 136.822121 65.377491 
L 138.663719 68.902136 
L 140.505317 72.856615 
L 144.188512 81.010579 
L 147.135069 86.925105 
L 149.713306 91.648988 
L 152.291543 95.951633 
L 154.86978 99.833041 
L 157.448017 103.29321 
L 159.657934 105.923799 
L 161.867851 108.244906 
L 164.077769 110.256532 
L 166.287686 111.958678 
L 168.497603 113.351342 
L 170.339201 114.275487 
L 172.180799 114.984714 
L 174.022397 115.479024 
L 175.863994 115.758417 
L 177.337273 115.82719 
L 177.337273 115.82719 
" clip-path="url(#p600c5c1aff)" style="fill: none; stroke-dasharray: 1.5,1.5; stroke-dashoffset: 0; stroke: #d62728; stroke-width: 1.5"/>
   </g>
   <g id="line2d_16">
    <path d="M 104.41 115.82719 
L 106.251598 115.719731 
L 108.093196 115.397355 
L 109.934793 114.860062 
L 111.776391 114.107851 
L 113.617989 113.140723 
L 115.827906 111.696479 
L 118.037824 109.942753 
L 120.247741 107.879546 
L 122.457658 105.506859 
L 124.667576 102.82469 
L 127.245813 99.304344 
L 129.82405 95.36276 
L 132.402287 90.999938 
L 134.980523 86.215877 
L 137.92708 80.232578 
L 140.873636 73.699091 
L 142.715234 69.766103 
L 144.188512 67.083935 
L 145.661791 64.814408 
L 147.135069 62.957522 
L 148.608347 61.513277 
L 149.713306 60.70089 
L 150.818264 60.120613 
L 151.923223 59.772447 
L 153.028182 59.656391 
L 154.13314 59.772447 
L 155.238099 60.120613 
L 156.343058 60.70089 
L 157.448017 61.513277 
L 158.552975 62.557775 
L 160.026253 64.311501 
L 161.499532 66.477868 
L 162.97281 69.056876 
L 164.446088 72.048526 
L 166.287686 76.368364 
L 168.129284 81.332955 
L 169.970882 86.942298 
L 171.812479 93.196393 
L 174.022397 101.55238 
L 176.232314 110.836809 
L 177.337273 115.82719 
L 177.337273 115.82719 
" clip-path="url(#p600c5c1aff)" style="fill: none; stroke-dasharray: 9,3,1.5,3; stroke-dashoffset: 0; stroke: #9467bd; stroke-width: 1.5"/>
   </g>
   <g id="line2d_17">
    <path d="M 140.873636 115.82719 
L 141.241956 115.818593 
L 141.610275 115.792803 
L 141.978595 115.74982 
L 142.346915 115.689643 
L 142.715234 115.612273 
L 143.083554 115.517709 
L 143.451873 115.405952 
L 143.820193 115.277002 
L 144.188512 115.130858 
L 144.556832 114.967521 
L 144.925152 114.78699 
L 145.293471 114.589266 
L 145.661791 114.374349 
L 146.03011 114.142238 
L 146.39843 113.892934 
L 146.766749 113.626436 
L 147.135069 113.342746 
L 147.503388 113.041861 
L 147.871708 112.723784 
L 148.240028 112.388512 
L 148.608347 112.036048 
L 148.976667 111.66639 
L 149.344986 111.279539 
L 149.713306 110.875494 
L 150.081625 110.454256 
L 150.449945 110.015825 
L 150.818264 109.5602 
L 151.186584 109.087382 
L 151.554904 108.59737 
L 151.923223 108.090165 
L 152.291543 107.565767 
L 152.659862 107.024175 
L 153.028182 106.46539 
L 153.396501 105.889412 
L 153.764821 105.29624 
L 154.13314 104.685875 
L 154.50146 104.058316 
L 154.86978 103.413564 
L 155.238099 102.751618 
L 155.606419 102.07248 
L 155.974738 101.376147 
L 156.343058 100.662622 
L 156.711377 99.931903 
L 157.079697 99.18399 
L 157.448017 98.418885 
L 157.816336 97.636585 
L 158.184656 96.837093 
L 158.552975 96.020407 
L 158.921295 95.186528 
L 159.289614 94.335455 
L 159.657934 93.467189 
L 160.026253 92.581729 
L 160.394573 91.679077 
L 160.762893 90.75923 
L 161.131212 89.822191 
L 161.499532 88.867958 
L 161.867851 87.896531 
L 162.236171 86.907911 
L 162.60449 85.902098 
L 162.97281 84.879092 
L 163.341129 83.838892 
L 163.709449 82.781498 
L 164.077769 81.706911 
L 164.446088 80.615131 
L 164.814408 79.506158 
L 165.182727 78.379991 
L 165.551047 77.236631 
L 165.919366 76.076077 
L 166.287686 74.89833 
L 166.656006 73.703389 
L 167.024325 72.491255 
L 167.392645 71.261928 
L 167.760964 70.015408 
L 168.129284 68.751693 
L 168.497603 67.470786 
L 168.865923 66.172685 
L 169.234242 64.857391 
L 169.602562 63.524904 
L 169.970882 62.175223 
L 170.339201 60.808348 
L 170.707521 59.42428 
L 171.07584 58.023019 
L 171.44416 56.604565 
L 171.812479 55.168917 
L 172.180799 53.716076 
L 172.549118 52.246041 
L 172.917438 50.758813 
L 173.285758 49.254391 
L 173.654077 47.732777 
L 174.022397 46.193968 
L 174.390716 44.637967 
L 174.759036 43.064772 
L 175.127355 41.474383 
L 175.495675 39.866801 
L 175.863994 38.242026 
L 176.232314 36.600058 
L 176.600634 34.940896 
L 176.968953 33.26454 
L 177.337273 31.570992 
" clip-path="url(#p600c5c1aff)" style="fill: none; stroke-dasharray: 4.5,1.5,1.5,1.5; stroke-dashoffset: 0; stroke: #8c564b; stroke-width: 1.5"/>
   </g>
   <g id="line2d_18">
    <path d="M 31.482727 120.04 
L 31.482727 18.09 
" clip-path="url(#p600c5c1aff)" style="fill: none; stroke-dasharray: 0.8,1.32; stroke-dashoffset: 0; stroke: #808080; stroke-width: 0.8"/>
   </g>
   <g id="line2d_19">
    <path d="M 67.946364 120.04 
L 67.946364 18.09 
" clip-path="url(#p600c5c1aff)" style="fill: none; stroke-dasharray: 0.8,1.32; stroke-dashoffset: 0; stroke: #808080; stroke-width: 0.8"/>
   </g>
   <g id="line2d_20">
    <path d="M 104.41 120.04 
L 104.41 18.09 
" clip-path="url(#p600c5c1aff)" style="fill: none; stroke-dasharray: 0.8,1.32; stroke-dashoffset: 0; stroke: #808080; stroke-width: 0.8"/>
   </g>
   <g id="line2d_21">
    <path d="M 140.873636 120.04 
L 140.873636 18.09 
" clip-path="url(#p600c5c1aff)" style="fill: none; stroke-dasharray: 0.8,1.32; stroke-dashoffset: 0; stroke: #808080; stroke-width: 0.8"/>
   </g>
   <g id="line2d_22">
    <path d="M 177.337273 120.04 
L 177.337273 18.09 
" clip-path="url(#p600c5c1aff)" style="fill: none; stroke-dasharray: 0.8,1.32; stroke-dashoffset: 0; stroke: #808080; stroke-width: 0.8"/>
   </g>
   <g id="patch_3">
    <path d="M 24.19 120.04 
L 24.19 18.09 
" style="fill: none; stroke: #000000; stroke-width: 0.8; stroke-linejoin: miter; stroke-linecap: square"/>
   </g>
   <g id="patch_4">
    <path d="M 184.63 120.04 
L 184.63 18.09 
" style="fill: none; stroke: #000000; stroke-width: 0.8; stroke-linejoin: miter; stroke-linecap: square"/>
   </g>
   <g id="patch_5">
    <path d="M 24.19 120.04 
L 184.63 120.04 
" style="fill: none; stroke: #000000; stroke-width: 0.8; stroke-linejoin: miter; stroke-linecap: square"/>
   </g>
   <g id="patch_6">
    <path d="M 24.19 18.09 
L 184.63 18.09 
" style="fill: none; stroke: #000000; stroke-width: 0.8; stroke-linejoin: miter; stroke-linecap: square"/>
   </g>
   <g id="text_10">
    <!-- $\xi_{0-2}$ -->
    <g transform="translate(19.782727 20.624091)">
     <text>
      <tspan style="font: oblique 10px 'DejaVu Sans'" x="0" y="-0.40625">ξ</tspan>
      <tspan style="font: 7px 'DejaVu Sans'" x="5.576172 11.393555 18.622559" y="1.234375">0−2</tspan>
     </text>
    </g>
   </g>
   <g id="text_11">
    <!-- $\xi_{3}$ -->
    <g transform="translate(62.746364 20.624091)">
     <text>
      <tspan style="font: oblique 10px 'DejaVu Sans'" x="0" y="-0.40625">ξ</tspan>
      <tspan style="font: 7px 'DejaVu Sans'" x="5.576172" y="1.234375">3</tspan>
     </text>
    </g>
   </g>
   <g id="text_12">
    <!-- $\xi_{4}$ -->
    <g transform="translate(99.21 20.624091)">
     <text>
      <tspan style="font: oblique 10px 'DejaVu Sans'" x="0" y="-0.40625">ξ</tspan>
      <tspan style="font: 7px 'DejaVu Sans'" x="5.576172" y="1.234375">4</tspan>
     </text>
    </g>
   </g>
   <g id="text_13">
    <!-- $\xi_{5}$ -->
    <g transform="translate(135.673636 20.624091)">
     <text>
      <tspan style="font: oblique 10px 'DejaVu Sans'" x="0" y="-0.40625">ξ</tspan>
      <tspan style="font: 7px 'DejaVu Sans'" x="5.576172" y="1.234375">5</tspan>
     </text>
    </g>
   </g>
   <g id="text_14">
    <!-- $\xi_{6-8}$ -->
    <g transform="translate(165.637273 20.624091)">
     <text>
      <tspan style="font: oblique 10px 'DejaVu Sans'" x="0" y="-0.40625">ξ</tspan>
      <tspan style="font: 7px 'DejaVu Sans'" x="5.576172 11.393555 18.622559" y="1.234375">6−8</tspan>
     </text>
    </g>
   </g>
   <g id="legend_1">
    <g id="patch_7">
     <path d="M 191.63 115.8275 
L 275.0675 115.8275 
Q 277.0675 115.8275 277.0675 113.8275 
L 277.0675 25.09 
Q 277.0675 23.09 275.0675 23.09 
L 191.63 23.09 
Q 189.63 23.09 189.63 25.09 
L 189.63 113.8275 
Q 189.63 115.8275 191.63 115.8275 
z
" style="fill: #ffffff; opacity: 0.8; stroke: #cccccc; stroke-linejoin: miter"/>
    </g>
    <g id="line2d_23">
     <path d="M 193.63 31.188438 
L 203.63 31.188438 
L 213.63 31.188438 
" style="fill: none; stroke: #1f77b4; stroke-width: 1.5; stroke-linecap: square"/>
    </g>
    <g id="text_15">
     <text style="font: 10px 'DejaVu Sans', 'Bitstream Vera Sans', 'Computer Modern Sans Serif', 'Lucida Grande', 'Verdana', 'Geneva', 'Lucid', 'Arial', 'Helvetica', 'Avant Garde', sans-serif; text-anchor: start" x="221.63" y="34.688438" transform="rotate(-0 221.63 34.688438)">$N_0(\xi)$</text>
    </g>
    <g id="line2d_24">
     <path d="M 193.63 46.144688 
L 203.63 46.144688 
L 213.63 46.144688 
" style="fill: none; stroke-dasharray: 9,3; stroke-dashoffset: 0; stroke: #ff7f0e; stroke-width: 1.5"/>
    </g>
    <g id="text_16">
     <text style="font: 10px 'DejaVu Sans', 'Bitstream Vera Sans', 'Computer Modern Sans Serif', 'Lucida Grande', 'Verdana', 'Geneva', 'Lucid', 'Arial', 'Helvetica', 'Avant Garde', sans-serif; text-anchor: start" x="221.63" y="49.644688" transform="rotate(-0 221.63 49.644688)">$N_1(\xi)$</text>
    </g>
    <g id="line2d_25">
     <path d="M 193.63 61.100938 
L 203.63 61.100938 
L 213.63 61.100938 
" style="fill: none; stroke-dasharray: 4.5,1.5; stroke-dashoffset: 0; stroke: #2ca02c; stroke-width: 1.5"/>
    </g>
    <g id="text_17">
     <text style="font: 10px 'DejaVu Sans', 'Bitstream Vera Sans', 'Computer Modern Sans Serif', 'Lucida Grande', 'Verdana', 'Geneva', 'Lucid', 'Arial', 'Helvetica', 'Avant Garde', sans-serif; text-anchor: start" x="221.63" y="64.600938" transform="rotate(-0 221.63 64.600938)">$N_2(\xi)$</text>
    </g>
    <g id="line2d_26">
     <path d="M 193.63 76.057188 
L 203.63 76.057188 
L 213.63 76.057188 
" style="fill: none; stroke-dasharray: 1.5,1.5; stroke-dashoffset: 0; stroke: #d62728; stroke-width: 1.5"/>
    </g>
    <g id="text_18">
     <text style="font: 10px 'DejaVu Sans', 'Bitstream Vera Sans', 'Computer Modern Sans Serif', 'Lucida Grande', 'Verdana', 'Geneva', 'Lucid', 'Arial', 'Helvetica', 'Avant Garde', sans-serif; text-anchor: start" x="221.63" y="79.557188" transform="rotate(-0 221.63 79.557188)">$N_3(\xi)$</text>
    </g>
    <g id="line2d_27">
     <path d="M 193.63 91.013438 
L 203.63 91.013438 
L 213.63 91.013438 
" style="fill: none; stroke-dasharray: 9,3,1.5,3; stroke-dashoffset: 0; stroke: #9467bd; stroke-width: 1.5"/>
    </g>
    <g id="text_19">
     <text style="font: 10px 'DejaVu Sans', 'Bitstream Vera Sans', 'Computer Modern Sans Serif', 'Lucida Grande', 'Verdana', 'Geneva', 'Lucid', 'Arial', 'Helvetica', 'Avant Garde', sans-serif; text-anchor: start" x="221.63" y="94.513438" transform="rotate(-0 221.63 94.513438)">$N_4(\xi)$</text>
    </g>
    <g id="line2d_28">
     <path d="M 193.63 105.969688 
L 203.63 105.969688 
L 213.63 105.969688 
" style="fill: none; stroke-dasharray: 4.5,1.5,1.5,1.5; stroke-dashoffset: 0; stroke: #8c564b; stroke-width: 1.5"/>
    </g>
    <g id="text_20">
     <text style="font: 10px 'DejaVu Sans', 'Bitstream Vera Sans', 'Computer Modern Sans Serif', 'Lucida Grande', 'Verdana', 'Geneva', 'Lucid', 'Arial', 'Helvetica', 'Avant Garde', sans-serif; text-anchor: start" x="221.63" y="109.469688" transform="rotate(-0 221.63 109.469688)">$N_5(\xi)$</text>
    </g>
   </g>
  </g>
 </g>
 <defs>
  <clipPath id="p600c5c1aff">
   <rect x="24.19" y="18.09" width="160.44" height="101.95"/>
  </clipPath>
 </defs>
</svg>
